<?xml version="1.0" encoding="UTF-8" standalone="no"?><!DOCTYPE svg PUBLIC "-//W3C//DTD SVG 1.1//EN" "http://www.w3.org/Graphics/SVG/1.1/DTD/svg11.dtd"><svg width="100%" height="100%" viewBox="0 0 4267 4267" version="1.1" xmlns="http://www.w3.org/2000/svg" xmlns:xlink="http://www.w3.org/1999/xlink" xml:space="preserve" xmlns:serif="http://www.serif.com/" style="fill-rule:evenodd;clip-rule:evenodd;stroke-linecap:round;stroke-linejoin:round;stroke-miterlimit:1.41421;"><g id="Layer-4" serif:id="Layer 4"><path d="M4266.67,632.645c-0,-349.329 -283.611,-632.939 -632.939,-632.939l-3000.79,-0c-349.329,-0 -632.939,283.61 -632.939,632.939l-0,3001.08c-0,349.328 283.61,632.939 632.939,632.939l3000.79,-0c349.328,-0 632.939,-283.611 632.939,-632.939l-0,-3001.08Z" style="fill:#1795c1;"/></g><g><g><circle cx="2440.43" cy="1251.66" r="666.667" style="fill:#fff;"/><circle cx="2440.43" cy="1251.66" r="458.333" style="fill:#c1272d;"/><path d="M2565.43,1772.17c-0,-28.399 -31.741,-51.767 -70.313,-51.767l-109.375,0c-38.572,0 -70.312,23.368 -70.312,51.767l-0,1688.51c0.014,24.45 6.627,48.655 19.453,71.208l78.672,138.044c5.362,7.226 15.691,11.736 26.875,11.736c11.184,0 21.512,-4.51 26.875,-11.736l78.672,-138.044c12.826,-22.553 19.438,-46.758 19.453,-71.208l-0,-1688.51Z" style="fill:#fff;fill-rule:nonzero;"/><circle cx="2531.34" cy="1155.72" r="166.667" style="fill:#fff;"/></g><path d="M1159.57,-0l0,4266.67" style="fill:none;stroke:#fff;stroke-width:166.67px;"/><path d="M772.545,2728.82l1175.32,-0" style="fill:none;stroke:#fff;stroke-width:166.67px;"/><path d="M2932.99,2728.82l1333.67,-0" style="fill:none;stroke:#fff;stroke-width:166.67px;"/></g></svg>