<?xml version="1.0" encoding="UTF-8" standalone="no"?>
<!DOCTYPE svg PUBLIC "-//W3C//DTD SVG 1.1//EN" "http://www.w3.org/Graphics/SVG/1.1/DTD/svg11.dtd">
<svg width="100%" height="100%" viewBox="0 0 505 106" version="1.1" xmlns="http://www.w3.org/2000/svg" xmlns:xlink="http://www.w3.org/1999/xlink" xml:space="preserve" xmlns:serif="http://www.serif.com/" style="fill-rule:evenodd;clip-rule:evenodd;stroke-linejoin:round;stroke-miterlimit:2;">
    <g id="Logo" transform="matrix(1,0,0,1,-41.4716,-38.3882)">
        <path id="path960" d="M146.775,94.979C145.987,105.862 141.897,115.824 135.509,123.882C135.126,124.368 134.728,124.847 134.326,125.322C134.083,125.606 133.84,125.882 133.593,126.159C133.04,126.781 132.469,127.389 131.887,127.986C131.36,128.528 130.819,129.054 130.27,129.567C121.708,137.62 110.456,142.845 98.007,143.755L98.088,143.674L98.091,143.674L98.169,143.593L122.389,119.376C122.573,119.192 122.754,119.007 122.931,118.823L146.68,95.074" style="fill:white;fill-rule:nonzero;"/>
        <path id="path962" d="M65.836,119.376C58.718,112.258 54.845,103.125 54.215,93.818C54.197,93.531 54.175,93.251 54.164,92.963C54.127,92.289 54.112,91.619 54.112,90.941C54.112,87.231 54.624,83.524 55.649,79.932L41.472,94.01C41.49,94.367 41.505,94.728 41.534,95.085C41.895,99.794 42.872,104.333 44.386,108.614C47.046,116.141 51.364,122.887 56.901,128.413C57.185,128.693 57.465,128.966 57.752,129.242C58.032,129.504 58.312,129.769 58.596,130.031C58.909,130.314 59.23,130.591 59.547,130.871C67.851,138.062 78.425,142.708 90.052,143.593L65.836,119.376Z" style="fill:white;fill-rule:nonzero;"/>
        <g id="g966" transform="matrix(0.129973,0,0,0.129973,32.482,34.5345)">
            <path id="path964" d="M691.654,216.425C746.419,271.191 776.211,341.461 781.058,413.065L781.455,419.641C781.739,424.828 781.852,429.987 781.852,435.203C781.852,463.663 777.912,492.094 770.06,519.647L879.109,411.392C878.967,408.728 878.854,406.035 878.655,403.37L878.655,403.342C871.257,306.51 829.956,219.231 766.602,153.213C764.589,151.087 762.491,148.989 760.422,146.891C758.239,144.737 756.085,142.639 753.874,140.513C751.521,138.274 749.14,136.063 746.759,133.88C744.548,131.924 742.309,129.969 740.098,127.984C676.176,72.652 594.822,36.907 505.389,30.104L689.499,214.214L691.654,216.425Z" style="fill:white;fill-rule:nonzero;"/>
        </g>
        <g id="g970" transform="matrix(0.129973,0,0,0.129973,32.482,34.5345)">
            <path id="path968" d="M451.077,29.65C448.328,29.792 445.606,29.906 442.885,30.104C342.907,37.729 253.077,81.524 186.378,148.394C184.195,150.605 182.041,152.844 179.887,155.055C177.732,157.351 175.578,159.676 173.452,162C168.208,167.839 163.077,173.764 158.145,179.915C155.962,182.608 153.836,185.329 151.767,188.079C105.42,248.712 75.77,322.781 69.647,403.398L250.98,222.094L252.369,220.677L255.997,217.049C307.191,165.855 371.991,136.46 438.775,128.948C440.929,128.693 443.083,128.494 445.238,128.296C447.42,128.041 449.603,127.871 451.786,127.729C453.288,127.616 454.819,127.531 456.321,127.446C462.444,127.049 468.567,126.879 474.746,126.879C503.263,126.879 531.78,130.847 559.389,138.728L451.077,29.65Z" style="fill:white;fill-rule:nonzero;"/>
        </g>
        <path id="path972" d="M94.017,62.988C78.546,62.988 66.009,75.529 66.009,90.996C66.009,106.462 78.55,119.004 94.017,119.004C109.487,119.004 122.024,106.462 122.024,90.996C122.024,75.529 109.487,62.988 94.017,62.988ZM94.017,106.798C85.436,106.798 78.48,99.842 78.48,91.261C78.48,82.681 85.436,75.725 94.017,75.725C102.597,75.725 109.553,82.681 109.553,91.261C109.553,99.842 102.597,106.798 94.017,106.798Z" style="fill:white;fill-rule:nonzero;"/>
    </g>
    <g transform="matrix(1,0,0,1,-41.4716,-38.3882)">
        <g id="gotoproject_current">
            <g id="g912">
                <path id="path936" d="M201.295,109.756C201.295,119.173 195.308,123.885 183.338,123.885C178.53,123.885 174.267,123.266 170.546,122.025L170.546,116.447C174.337,117.685 178.626,118.307 183.412,118.307C190.747,118.307 194.417,115.456 194.417,109.756L194.417,107.896C191.491,109.137 188.345,109.756 184.974,109.756C172.628,109.756 166.457,103.176 166.457,90.012C166.457,77.147 172.963,70.718 185.976,70.718C191.256,70.718 196.362,71.252 201.295,72.317L201.295,109.756ZM194.417,77.335C192.062,76.738 189.148,76.443 185.678,76.443C177.373,76.443 173.221,80.942 173.221,89.939C173.221,99.186 177.149,103.806 185.007,103.806C188.577,103.806 191.712,103.136 194.413,101.798L194.413,77.335L194.417,77.335Z" style="fill:white;fill-rule:nonzero;"/>
                <path id="path938" d="M207.547,90.237C207.547,77.224 213.744,70.718 226.138,70.718C238.532,70.718 244.729,77.224 244.729,90.237C244.729,103.224 238.532,109.719 226.138,109.719C213.792,109.719 207.595,103.228 207.547,90.237ZM226.135,104.178C233.942,104.178 237.847,99.481 237.847,90.086C237.847,80.89 233.942,76.292 226.135,76.292C218.328,76.292 214.422,80.89 214.422,90.086C214.422,99.484 218.328,104.178 226.135,104.178Z" style="fill:white;fill-rule:nonzero;"/>
                <path id="path940" d="M250.974,64.395L255.288,64.395L256.777,70.718L267.336,70.718L267.336,76.296L257.856,76.296L257.856,98.714C257.856,102.358 259.429,104.182 262.579,104.182L267.339,104.182L267.339,109.76L260.796,109.76C254.253,109.76 250.981,106.252 250.981,99.238L250.981,64.395L250.974,64.395Z" style="fill:white;fill-rule:nonzero;"/>
                <path id="path942" d="M272.689,90.237C272.689,77.224 278.886,70.718 291.28,70.718C303.674,70.718 309.871,77.224 309.871,90.237C309.871,103.224 303.674,109.719 291.28,109.719C278.938,109.719 272.741,103.228 272.689,90.237ZM291.28,104.178C299.087,104.178 302.992,99.481 302.992,90.086C302.992,80.89 299.087,76.292 291.28,76.292C283.473,76.292 279.568,80.89 279.568,90.086C279.568,99.484 283.473,104.178 291.28,104.178Z" style="fill:white;fill-rule:nonzero;"/>
                <path id="path944" d="M318.238,72.317C323.418,71.252 328.896,70.718 334.673,70.718C347.933,70.718 354.565,76.904 354.565,89.272C354.565,102.929 348.393,109.76 336.047,109.76C333.42,109.76 330.768,109.141 328.089,107.899L328.089,123.885L318.238,123.885L318.238,72.317ZM328.089,99.569C330.543,100.907 333.185,101.577 336.011,101.577C341.883,101.577 344.823,97.451 344.823,89.194C344.823,82.179 341.577,78.672 335.082,78.672C332.282,78.672 329.95,78.845 328.093,79.192L328.093,99.569L328.089,99.569Z" style="fill:white;fill-rule:nonzero;"/>
                <path id="path946" d="M361.999,109.756L361.999,70.718L369.622,70.718L370.849,75.699C374.268,72.379 377.89,70.718 381.707,70.718L381.707,78.676C378.037,78.676 374.754,80.201 371.855,83.248L371.855,109.756L361.999,109.756Z" style="fill:white;fill-rule:nonzero;"/>
                <path id="path948" d="M385.424,90.237C385.424,77.15 391.868,70.607 404.759,70.607C417.647,70.607 424.094,77.15 424.094,90.237C424.094,103.301 417.65,109.83 404.759,109.83C391.916,109.834 385.472,103.301 385.424,90.237ZM404.755,102.321C411.078,102.321 414.235,98.243 414.235,90.09C414.235,82.132 411.074,78.153 404.755,78.153C398.437,78.153 395.276,82.132 395.276,90.09C395.276,98.243 398.437,102.321 404.755,102.321Z" style="fill:white;fill-rule:nonzero;"/>
                <path id="path950" d="M441.381,70.718L441.381,106.783C441.381,114.664 439.126,121.085 434.613,126.044L426.879,120.654C429.978,117.309 431.525,112.685 431.525,106.787L431.525,70.718L441.381,70.718Z" style="fill:white;fill-rule:nonzero;"/>
                <path id="path952" d="M467.145,70.718C478.993,70.718 484.918,76.767 484.918,88.863C484.918,90.473 484.807,92.086 484.582,93.696L458.667,93.696C458.667,99.201 462.709,101.949 470.788,101.949C474.731,101.949 478.669,101.577 482.611,100.833L482.611,108.64C479.166,109.384 474.977,109.756 470.044,109.756C455.889,109.756 448.815,103.102 448.815,89.791C448.815,77.077 454.924,70.718 467.145,70.718ZM458.667,86.855L475.324,86.855L475.324,86.556C475.324,81.152 472.597,78.451 467.145,78.451C461.939,78.451 459.113,81.251 458.667,86.855Z" style="fill:white;fill-rule:nonzero;"/>
                <path id="path954" d="M521.134,108.644C517.91,109.388 514.565,109.76 511.094,109.76C497.212,109.76 490.275,103.007 490.275,89.496C490.275,76.981 497.216,70.721 511.094,70.721C514.565,70.721 517.91,71.093 521.134,71.838L521.134,79.645C517.91,78.9 514.812,78.528 511.839,78.528C504.032,78.528 500.126,82.183 500.126,89.496C500.126,97.801 504.032,101.953 511.839,101.953C514.812,101.953 517.91,101.581 521.134,100.837L521.134,108.644Z" style="fill:white;fill-rule:nonzero;"/>
                <path id="path956" d="M527.08,64.395L534.368,64.395L535.856,70.718L545.671,70.718L545.671,78.525L536.932,78.525L536.932,96.482C536.932,100.126 538.505,101.949 541.655,101.949L545.671,101.949L545.671,109.756L536.895,109.756C530.352,109.756 527.08,106.249 527.08,99.234L527.08,64.395Z" style="fill:white;fill-rule:nonzero;"/>
                <circle id="path872" cx="436.463" cy="60.67" r="5.95" style="fill:white;"/>
            </g>
        </g>
    </g>
</svg>
