<?xml version="1.0" encoding="UTF-8" standalone="no"?>
<!DOCTYPE svg PUBLIC "-//W3C//DTD SVG 1.1//EN" "http://www.w3.org/Graphics/SVG/1.1/DTD/svg11.dtd">
<svg width="100%" height="100%" viewBox="0 0 239 122" version="1.1" xmlns="http://www.w3.org/2000/svg" xmlns:xlink="http://www.w3.org/1999/xlink" xml:space="preserve" xmlns:serif="http://www.serif.com/" style="fill-rule:evenodd;clip-rule:evenodd;stroke-linejoin:round;stroke-miterlimit:2;">
    <g id="Artboard1" transform="matrix(1,0,0,0.898284,0,0)">
        <rect x="0" y="0" width="238.14" height="134.82" style="fill:none;"/>
        <clipPath id="_clip1">
            <rect x="0" y="0" width="238.14" height="134.82"/>
        </clipPath>
        <g clip-path="url(#_clip1)">
            <g transform="matrix(1,0,0,1.11323,0,0)">
                <path d="M47.35,70.93C47.35,71.93 48.71,72.68 50.51,72.68C52.31,72.68 53.67,71.92 53.67,70.93L53.67,61.58L63.73,61.58L63.73,70.93C63.73,71.93 65.09,72.68 66.89,72.68C68.69,72.68 70.04,71.92 70.04,70.93L70.04,46.58C70.04,45.59 68.68,44.83 66.89,44.83C65.09,44.83 63.73,45.58 63.73,46.58L63.73,55.71L53.66,55.71L53.66,46.58C53.66,45.59 52.3,44.83 50.5,44.83C48.7,44.83 47.34,45.58 47.34,46.58L47.34,70.93L47.35,70.93ZM119.36,72.68C120.12,72.68 121.1,72.19 121.92,71.4C123.18,70.19 123.65,68.73 122.96,67.95L115.02,58.44L121.97,49.36C122.31,48.97 122.34,48.39 122.07,47.72C121.83,47.13 121.36,46.51 120.76,45.99C119.91,45.24 118.91,44.8 118.17,44.84C117.79,44.86 117.48,45 117.27,45.24L109.68,55.72L106.43,55.72L106.43,46.59C106.43,45.59 105.07,44.84 103.27,44.84C101.47,44.84 100.12,45.59 100.12,46.59L100.12,70.93C100.12,71.93 101.47,72.68 103.27,72.68C105.07,72.68 106.43,71.92 106.43,70.93L106.43,61.58L109.69,61.58L118.45,72.33C118.66,72.56 118.97,72.68 119.36,72.68ZM79.24,72.47L94.44,72.47C95.37,72.47 96.06,71.21 96.06,69.53C96.06,67.86 95.36,66.6 94.44,66.6L81.94,66.6L81.94,61.58L91.42,61.58C92.34,61.58 93.04,60.32 93.04,58.64C93.04,56.97 92.34,55.71 91.42,55.71L81.94,55.71L81.94,50.92L94.33,50.92C95.26,50.92 95.95,49.66 95.95,47.99C95.95,46.32 95.25,45.06 94.33,45.06L79.24,45.06C77.25,45.06 75.63,46.67 75.63,48.67L75.63,68.85C75.63,70.85 77.25,72.47 79.24,72.47ZM151.44,72.46L166.63,72.46C167.56,72.46 168.26,71.2 168.26,69.53C168.26,67.86 167.56,66.6 166.63,66.6L154.14,66.6L154.14,61.59L163.61,61.59C164.53,61.59 165.23,60.33 165.23,58.66C165.23,56.98 164.53,55.73 163.61,55.73L154.14,55.73L154.14,50.94L166.52,50.94C167.44,50.94 168.14,49.68 168.14,48.01C168.14,46.34 167.44,45.08 166.52,45.08L151.44,45.08C149.45,45.08 147.84,46.7 147.84,48.69L147.84,68.85C147.83,70.85 149.45,72.46 151.44,72.46ZM134.77,72.69C136.57,72.69 137.92,71.94 137.92,70.94C137.92,70.88 137.91,70.83 137.9,70.8L137.9,50.96L144.07,50.96C145,50.96 145.71,49.7 145.71,48.03C145.71,46.36 145.01,45.1 144.06,45.1L125.43,45.1C124.5,45.1 123.79,46.36 123.79,48.03C123.79,49.7 124.49,50.96 125.43,50.96L131.59,50.96L131.59,70.79C131.58,70.84 131.58,70.89 131.58,70.94C131.58,71.94 132.93,72.69 134.73,72.69L134.77,72.69ZM169.77,58.79C169.77,66.98 176.34,72.92 184,72.92C187.3,72.92 189.01,72.16 191.32,70.6L191.61,70.38C192.37,69.82 192.17,68.37 191.16,67.01C190.43,66.04 189.48,65.42 188.73,65.42C188.48,65.42 188.26,65.48 188.05,65.64L187.83,65.79C186.6,66.64 185.02,67.06 183,67.06C178.05,67.06 176.3,62.6 176.3,58.78C176.3,54.66 178.37,50.5 183,50.5C184.99,50.5 186.55,50.9 187.76,51.73L188.1,51.97C188.28,52.09 188.49,52.15 188.73,52.15C189.48,52.15 190.43,51.53 191.15,50.56C191.6,49.96 191.91,49.29 192.02,48.7C192.14,48.02 192,47.48 191.55,47.15L191.3,46.97C189.02,45.41 186.3,44.66 183,44.66C175.33,44.66 169.77,50.6 169.77,58.79Z" style="fill:white;fill-rule:nonzero;"/>
            </g>
            <g transform="matrix(1,0,0,1.11323,0,0)">
                <path d="M-88.37,181.91L-88.37,102.25L27.69,102.25" style="fill:none;fill-rule:nonzero;"/>
            </g>
            <g transform="matrix(1,0,0,1.11323,0,0)">
                <path d="M119.07,0C184.83,0 238.14,26.65 238.14,59.53C238.14,92.41 184.84,119.07 119.07,119.07C53.31,119.06 0,92.41 0,59.53C0,26.65 53.31,0 119.07,0ZM119.07,5.87C88.16,5.87 59.19,11.84 37.5,22.69C17.11,32.89 6.09,45.97 6.09,59.53C6.09,73.09 17.11,86.17 37.5,96.37C59.19,107.21 88.16,113.19 119.07,113.19C149.98,113.19 178.94,107.21 200.64,96.37C221.03,86.17 232.06,73.09 232.06,59.53C232.06,45.97 221.04,32.89 200.64,22.69C178.94,11.85 149.98,5.87 119.07,5.87Z" style="fill:white;fill-rule:nonzero;"/>
            </g>
        </g>
    </g>
</svg>
