<?xml version="1.0" encoding="UTF-8" standalone="no"?>
<!DOCTYPE svg PUBLIC "-//W3C//DTD SVG 1.1//EN" "http://www.w3.org/Graphics/SVG/1.1/DTD/svg11.dtd">
<svg width="100%" height="100%" viewBox="0 0 232 100" version="1.1" xmlns="http://www.w3.org/2000/svg" xmlns:xlink="http://www.w3.org/1999/xlink" xml:space="preserve" xmlns:serif="http://www.serif.com/" style="fill-rule:evenodd;clip-rule:evenodd;stroke-linejoin:round;stroke-miterlimit:2;">
    <path d="M99.706,59.274L90.833,59.274L90.833,50.018L86.78,50.018L86.78,72.09L90.833,72.09L90.833,62.971L99.706,62.971L99.706,72.09L103.841,72.09L103.841,50.018L99.706,50.018L99.706,59.274ZM119.506,58.974C118.388,57.551 116.659,56.738 114.85,56.783C110.623,56.851 107.183,60.347 107.183,64.574C107.183,68.801 110.623,72.297 114.85,72.365C116.662,72.392 118.386,71.571 119.506,70.147L119.506,72.064L123.421,72.064L123.421,57.083L119.506,57.083L119.506,58.974ZM115.425,68.641C115.406,68.641 115.386,68.641 115.367,68.641C113.139,68.641 111.303,66.816 111.29,64.588C111.295,62.377 113.115,60.561 115.326,60.561C115.359,60.561 115.392,60.561 115.425,60.562C115.446,60.562 115.467,60.562 115.489,60.562C117.705,60.562 119.529,62.385 119.529,64.602C119.529,66.818 117.705,68.642 115.489,68.642C115.467,68.642 115.446,68.641 115.425,68.641ZM138.895,58.974C137.777,57.551 136.048,56.738 134.239,56.783C130.012,56.851 126.572,60.347 126.572,64.574C126.572,68.801 130.012,72.297 134.239,72.365C136.051,72.392 137.775,71.571 138.895,70.147L138.895,72.064L142.811,72.064L142.811,57.083L138.895,57.083L138.895,58.974ZM134.787,68.641C134.768,68.641 134.748,68.641 134.729,68.641C132.501,68.641 130.665,66.816 130.652,64.588C130.657,62.377 132.477,60.561 134.688,60.561C134.721,60.561 134.754,60.561 134.787,60.562C134.808,60.562 134.829,60.562 134.851,60.562C137.067,60.562 138.891,62.385 138.891,64.602C138.891,66.818 137.067,68.642 134.851,68.642C134.829,68.642 134.808,68.641 134.787,68.641ZM150.833,60.641L150.833,57.111L146.917,57.111L146.917,72.09L150.833,72.09L150.833,66.805C150.833,62.834 151.933,60.452 154.585,60.452C155.363,60.43 156.137,60.57 156.858,60.862L157.543,57.33C156.78,56.945 155.932,56.756 155.078,56.782C153.352,56.81 151.6,57.932 150.832,60.643L150.833,60.641ZM163.7,49.991L159.784,49.991L159.784,72.091L163.7,72.091L163.7,49.991ZM174.63,56.81C174.543,56.807 174.456,56.805 174.368,56.805C170.258,56.805 166.875,60.188 166.875,64.298C166.875,64.385 166.877,64.472 166.88,64.559C166.877,64.646 166.875,64.733 166.875,64.821C166.875,68.99 170.306,72.421 174.475,72.421C174.527,72.421 174.579,72.42 174.63,72.419C177.396,72.419 180.272,71.351 181.613,68.804C180.655,68.284 179.56,67.704 178.628,67.188C177.812,68.451 176.378,69.183 174.877,69.105C172.658,69.105 170.988,67.873 170.742,65.905L182.161,65.905C182.188,65.549 182.216,64.947 182.216,64.563C182.222,64.437 182.226,64.311 182.226,64.185C182.226,60.137 178.895,56.807 174.848,56.807C174.775,56.807 174.703,56.808 174.63,56.81ZM170.714,63.245C170.972,61.316 172.719,59.91 174.658,60.068C176.543,59.963 178.202,61.369 178.409,63.245L170.714,63.245ZM202.914,56.81C200.94,56.783 199.112,57.877 198.204,59.63C197.382,57.796 195.794,56.974 193.439,56.837C191.657,56.805 189.997,57.766 189.139,59.329L189.139,57.111L185.223,57.111L185.223,72.09L189.139,72.09L189.139,64.121C189.139,61.547 190.672,60.621 192.288,60.621C193.821,60.621 195.026,61.771 195.054,63.852L195.054,72.09L198.97,72.09L198.97,64.121C198.97,61.848 200.257,60.621 202.009,60.621C203.625,60.621 204.83,61.799 204.83,63.962L204.83,72.09L208.664,72.09L208.664,63.519C208.669,59.137 206.533,56.81 202.918,56.81L202.914,56.81ZM95.763,33.122L101.815,33.122C101.705,35.943 98.802,37.695 95.845,37.695C91.896,37.609 88.695,34.337 88.695,30.387C88.695,30.313 88.696,30.239 88.698,30.165C88.696,30.094 88.695,30.022 88.695,29.951C88.695,26.005 91.9,22.739 95.845,22.665C97.736,22.662 99.548,23.435 100.856,24.801L103.868,22.172C101.779,19.983 98.87,18.761 95.845,18.8C89.673,18.858 84.627,23.952 84.627,30.124C84.627,36.295 89.673,41.389 95.845,41.447C102.198,41.447 106.525,37.805 106.525,29.726L95.763,29.726L95.763,33.122ZM116.163,25.865C116.076,25.862 115.989,25.86 115.901,25.86C111.791,25.86 108.408,29.243 108.408,33.353C108.408,33.441 108.41,33.528 108.413,33.615C108.41,33.702 108.409,33.789 108.409,33.876C108.409,38.045 111.839,41.476 116.009,41.476C116.06,41.476 116.112,41.475 116.163,41.474C118.929,41.474 121.805,40.406 123.146,37.86C122.188,37.339 121.093,36.76 120.161,36.244C119.345,37.507 117.911,38.239 116.41,38.161C114.191,38.161 112.521,36.929 112.275,34.961L123.7,34.961C123.727,34.605 123.755,34.002 123.755,33.619C123.762,33.488 123.766,33.357 123.766,33.225C123.766,29.185 120.441,25.861 116.402,25.861C116.322,25.861 116.243,25.862 116.164,25.865L116.163,25.865ZM112.247,32.328C112.516,30.405 114.255,29.004 116.191,29.151C118.076,29.046 119.735,30.452 119.942,32.328L112.247,32.328ZM150.229,41.173L150.229,32.6C150.229,28.218 148.093,25.863 144.451,25.863C142.477,25.836 140.649,26.931 139.741,28.684C138.919,26.849 137.331,26.027 134.976,25.891C133.193,25.857 131.533,26.819 130.676,28.383L130.676,26.166L126.76,26.166L126.76,41.146L130.676,41.146L130.676,33.177C130.676,30.603 132.209,29.677 133.825,29.677C135.358,29.677 136.563,30.827 136.591,32.908L136.591,41.151L140.479,41.151L140.479,33.177C140.479,30.904 141.766,29.677 143.519,29.677C145.135,29.677 146.34,30.854 146.34,33.018L146.34,41.151L150.228,41.151L150.229,41.173ZM164.989,36.273C164.173,37.536 162.739,38.268 161.238,38.19C159.02,38.19 157.349,36.958 157.103,34.99L168.522,34.99C168.549,34.634 168.577,34.032 168.577,33.648C168.583,33.523 168.586,33.399 168.586,33.274C168.586,29.226 165.256,25.896 161.208,25.896C161.136,25.896 161.063,25.897 160.991,25.899C160.904,25.896 160.817,25.894 160.729,25.894C156.619,25.894 153.236,29.277 153.236,33.387C153.236,33.474 153.238,33.561 153.241,33.648C153.238,33.735 153.236,33.822 153.236,33.91C153.236,38.079 156.667,41.51 160.836,41.51C160.888,41.51 160.94,41.509 160.991,41.508C163.757,41.508 166.633,40.44 167.975,37.893C166.99,37.367 165.922,36.764 164.99,36.271L164.989,36.273ZM161.019,29.153C162.904,29.048 164.564,30.454 164.771,32.33L157.071,32.33C157.328,30.399 159.078,28.99 161.02,29.151L161.019,29.153ZM182.405,36.273C181.589,37.536 180.155,38.268 178.654,38.19C176.436,38.19 174.765,36.958 174.519,34.99L185.938,34.99C185.965,34.634 185.993,34.032 185.993,33.648C185.999,33.523 186.002,33.399 186.002,33.274C186.002,29.226 182.672,25.896 178.624,25.896C178.552,25.896 178.479,25.897 178.407,25.899C178.32,25.896 178.233,25.894 178.145,25.894C174.035,25.894 170.652,29.277 170.652,33.387C170.652,33.474 170.654,33.561 170.657,33.648C170.654,33.735 170.652,33.822 170.652,33.91C170.652,38.079 174.083,41.51 178.252,41.51C178.304,41.51 178.356,41.509 178.407,41.508C181.173,41.508 184.049,40.44 185.391,37.893C184.406,37.367 183.338,36.764 182.406,36.271L182.405,36.273ZM178.405,29.153C180.29,29.048 181.95,30.453 182.157,32.33L174.462,32.33C174.735,30.408 176.472,29.009 178.408,29.151L178.405,29.153ZM192.9,33.177C192.9,30.577 194.407,29.677 196.159,29.677C197.859,29.677 199.007,30.827 199.007,33.018L199.007,41.151L202.923,41.151L202.923,32.3C202.923,28.082 200.842,25.864 197.337,25.864C195.51,25.855 193.809,26.815 192.873,28.384L192.873,26.166L188.957,26.166L188.957,41.146L192.873,41.146L192.873,33.177L192.9,33.177ZM211.582,20.5L207.693,20.5L207.693,26.2L204.955,26.2L204.955,29.349L207.693,29.349L207.693,41.179L211.582,41.179L211.582,29.343L214.731,29.343L214.731,26.194L211.582,26.194L211.582,20.5ZM231.6,33.642C231.606,33.517 231.61,33.392 231.61,33.267C231.61,29.22 228.279,25.89 224.233,25.89C224.16,25.89 224.087,25.891 224.015,25.893C223.928,25.89 223.841,25.888 223.753,25.888C219.643,25.888 216.26,29.271 216.26,33.381C216.26,33.468 216.262,33.555 216.265,33.642C216.262,33.729 216.26,33.816 216.26,33.904C216.26,38.073 219.691,41.504 223.86,41.504C223.912,41.504 223.964,41.503 224.015,41.502C226.78,41.502 229.656,40.434 230.998,37.887C230.039,37.367 228.944,36.792 228.013,36.271C227.196,37.534 225.763,38.266 224.261,38.188C222.043,38.188 220.372,36.956 220.126,34.988L231.545,34.988C231.573,34.628 231.6,34.026 231.6,33.642ZM220.1,32.328C220.366,30.404 222.106,29.001 224.043,29.151C225.928,29.046 227.588,30.452 227.795,32.328L220.1,32.328Z" style="fill:white;fill-rule:nonzero;"/>
    <path d="M40.748,21.524C40.125,22.322 39.644,23.22 39.324,24.18C40.312,24.118 41.271,23.817 42.117,23.304C41.573,24.294 41.291,25.406 41.296,26.536C40.645,26.129 39.918,25.857 39.16,25.736C39.204,26.611 39.36,27.476 39.625,28.311C38.323,28.001 36.971,27.963 35.654,28.201C36.395,27.451 37.031,26.603 37.544,25.682C36.587,25.519 35.603,25.683 34.751,26.147C35.208,25.147 35.522,24.088 35.682,23C36.281,23.595 37.028,24.02 37.845,24.232C37.868,23.329 37.729,22.43 37.434,21.576C38.537,21.696 39.65,21.678 40.748,21.524ZM27.877,25.358C27.577,27.494 28.507,28.042 28.589,30.068C30.299,29.684 32.039,29.446 33.789,29.356C32.556,29.876 30.913,31.684 29.708,32.341C31.708,33.541 31.927,35.162 32.94,36.041C31.79,35.575 29.845,36.26 28.312,35.028C28.148,36.178 26.751,38.834 26.422,40.861C25.656,37.054 25.108,36.123 24.998,34.561C22.917,35.355 21.055,34.753 19.631,34.698C21.384,33.822 22.698,33.384 23.985,32.124C22.808,30.424 22.479,29.249 21.712,28.591C22.862,28.975 25.3,29.824 26.039,29.933C26.151,28.252 26.794,26.649 27.877,25.358ZM51.482,28.124C50.521,29.274 49.87,30.651 49.592,32.124C50.977,31.96 52.381,32.148 53.673,32.672C52.177,33.226 50.828,34.115 49.73,35.272C50.277,36.723 50.66,38.147 51.318,40.472C50.183,39.148 48.976,37.889 47.7,36.7C46.687,38.151 45.7,39.795 44.8,41.273C45.019,39.273 44.143,37.573 45.266,35.933C43.595,35.333 41.788,35.333 40.939,34.674C42.939,34.29 44.006,33.031 45.512,32.948C45.512,32.948 44.143,29.607 42.856,28.594C44.538,28.869 46.097,29.653 47.32,30.84C48.141,30.123 49.374,28.37 51.482,28.124ZM19.716,24.7C20.539,22.567 21.81,20.634 23.441,19.031C25.828,16.543 29.168,15.187 32.614,15.307C36.092,15.307 45.294,16.512 49.648,16.512C54.029,16.512 55.124,16.074 56.412,15.307C56.182,16.201 55.686,17.003 54.988,17.607C53.235,19.36 51.154,19.907 46.688,19.907C39.814,19.907 36.309,19.578 32.065,19.578C27.793,19.578 25.493,19.878 23.548,21.111C22.092,22.101 20.799,23.312 19.716,24.7ZM23.249,41.952C23.206,43.885 23.857,45.771 25.084,47.265C25.303,46.279 27.001,46.665 30.013,44.636C29.219,45.567 28.013,47.757 27.193,48.798C28.973,49.346 29.193,51.591 30.725,52.798C29.246,51.949 27.025,51.84 26.125,51.237C26.645,53.237 25.467,55.455 25.851,57.371C25.276,56.55 23.879,52.716 23.66,52.579C21.935,53.154 19.854,55.235 19.333,55.016C21.113,53.099 20.949,51.1 21.933,50.224C20.533,50.169 18.126,48.335 17.442,47.324C19.022,47.941 20.756,48.046 22.398,47.624C22.373,46.636 22.51,42.665 23.249,41.953L23.249,41.952ZM48.58,41.952C48.142,44.252 48.744,45.567 48.58,47.703C49.346,47.319 50.907,47.757 53.235,47.237C51.787,48.106 50.484,49.196 49.374,50.469C50.442,51.92 50.496,53.453 51.811,55.179C50.496,54.494 48.58,53.344 47.566,52.906C46.591,54.38 46.041,56.096 45.978,57.862C45.567,55.809 44.855,53.782 44.965,51.646C42.884,52.194 41.953,51.591 39.926,51.975C42.007,50.742 44.006,49.537 44.006,49.537C43.76,49.263 42.774,48.661 41.268,44.197C43.185,45.897 43.924,45.786 46.06,47.429C46.115,45.622 47.43,45.13 48.58,41.953L48.58,41.952ZM32.944,44.91C33.988,39.89 35.52,34.983 37.517,30.26C38.065,38.667 36.203,45.46 37.709,60.273L39.352,60.273C40.064,60.273 40.091,59.479 40.694,59.479C41.241,59.479 41.894,60.679 43.377,60.656C42.008,61.724 41.406,62.464 40.858,62.464C40.31,62.464 40.091,61.916 39.516,61.916C38.284,61.916 37.572,62.108 36.476,62.108C36.476,63.208 36.422,64.737 36.422,66.051C36.422,66.818 37.462,66.544 37.462,67.366C37.462,67.941 36.12,69.42 35.901,71.066C35.107,69.532 33.765,68.629 33.765,67.697C33.765,66.903 34.565,67.067 34.565,66.273C34.565,64.713 34.236,63.398 34.236,62.273C34.236,62.273 32.648,62.301 31.388,62.301C30.594,62.301 30.895,63.478 29.909,63.67C28.934,63.463 27.988,63.141 27.089,62.711C27.801,62.273 28.677,60.521 29.389,60.521C29.989,60.521 30.073,61.121 30.539,61.121C31.535,61.022 32.523,60.858 33.497,60.628C33.382,60.3 32.834,47.758 32.944,44.91ZM15.91,46.663C14.67,49.117 13.961,51.804 13.829,54.55C13.829,59.999 16.348,63.286 20.374,67.311C23.085,70.022 29.137,73.774 32.724,77.69C34.942,80.127 36.668,81.742 36.229,84.426C36.867,83.076 37.168,81.592 37.106,80.1C37.106,76.43 34.942,74.294 31.985,71.446C28.863,68.434 24.837,65.394 21.579,62.19C18.046,58.69 15.691,54.659 15.691,50.826C15.691,49.073 15.91,46.663 15.91,46.663Z" style="fill:white;fill-rule:nonzero;"/>
</svg>
