<?xml version="1.0" encoding="UTF-8" standalone="no"?>
<!DOCTYPE svg PUBLIC "-//W3C//DTD SVG 1.1//EN" "http://www.w3.org/Graphics/SVG/1.1/DTD/svg11.dtd">
<svg width="100%" height="100%" viewBox="0 0 8334 8334" version="1.1" xmlns="http://www.w3.org/2000/svg" xmlns:xlink="http://www.w3.org/1999/xlink" xml:space="preserve" xmlns:serif="http://www.serif.com/" style="fill-rule:evenodd;clip-rule:evenodd;stroke-linejoin:round;stroke-miterlimit:2;">
    <g transform="matrix(4.16667,0,0,4.16667,0,0)">
        <rect x="0" y="0" width="2000" height="2000" style="fill:rgb(23,149,193);fill-rule:nonzero;"/>
        <path d="M1749.52,1637.99C1746.88,1637.99 1744.2,1637.46 1741.61,1636.33L1501.76,1533C1497.23,1531.01 1493.77,1527.58 1491.75,1523.47C1490.72,1521.38 1490.07,1519.15 1489.83,1516.82C1489.42,1513.53 1489.89,1510.06 1491.3,1506.8L1561.72,1343.37L1563.23,1345.66L1561.73,1343.38L1575.14,1349.16L1512.29,1495.04C1510.88,1498.29 1510.4,1501.75 1510.81,1505.05C1511.05,1507.38 1511.7,1509.61 1512.73,1511.7C1514.76,1515.81 1518.22,1519.24 1522.75,1521.23L1762.6,1624.56C1764.3,1625.3 1766.05,1625.79 1767.8,1626.03C1766.67,1628.63 1765.04,1630.87 1763.07,1632.66C1761.36,1634.28 1759.41,1635.51 1757.28,1636.4C1754.84,1637.44 1752.21,1637.99 1749.52,1637.99ZM1606.74,1341.91L1605.56,1341.45L1593.3,1336.17L1641.52,1224.28L1654.94,1230.06L1606.74,1341.91Z" style="fill:rgb(15,52,74);fill-rule:nonzero;"/>
        <path d="M1859.26,1450.73L1681.19,1481.75L1582.72,1331.61L1859.26,1450.73Z" style="fill:rgb(199,170,46);fill-rule:nonzero;"/>
        <path d="M1550.97,1471.31L1782.39,1571.04L1893.92,1312.23L1662.5,1212.51L1550.97,1471.31Z" style="fill:white;fill-rule:nonzero;"/>
        <path d="M1848.17,1344.05C1849.49,1344.05 1850.76,1343.28 1851.32,1341.98C1852.06,1340.24 1851.26,1338.22 1849.52,1337.48L1674.65,1262.11C1672.9,1261.36 1670.89,1262.16 1670.14,1263.9C1669.39,1265.64 1670.19,1267.66 1671.93,1268.41L1846.81,1343.77C1847.25,1343.96 1847.71,1344.05 1848.17,1344.05Z" style="fill:rgb(99,174,178);fill-rule:nonzero;"/>
        <path d="M1836.51,1371.09C1837.84,1371.09 1839.1,1370.32 1839.66,1369.02C1840.41,1367.28 1839.61,1365.26 1837.87,1364.52L1662.99,1289.16C1661.25,1288.4 1659.24,1289.2 1658.49,1290.95C1657.74,1292.68 1658.54,1294.7 1660.28,1295.45L1835.16,1370.81C1835.6,1371 1836.06,1371.09 1836.51,1371.09Z" style="fill:rgb(99,174,178);fill-rule:nonzero;"/>
        <path d="M1824.86,1398.13C1826.19,1398.13 1827.45,1397.36 1828.01,1396.06C1828.76,1394.32 1827.96,1392.3 1826.22,1391.56L1651.34,1316.19C1649.6,1315.44 1647.58,1316.24 1646.83,1317.99C1646.08,1319.72 1646.89,1321.74 1648.62,1322.49L1823.5,1397.85C1823.95,1398.04 1824.41,1398.13 1824.86,1398.13Z" style="fill:rgb(99,174,178);fill-rule:nonzero;"/>
        <path d="M1813.21,1425.17C1814.53,1425.17 1815.8,1424.4 1816.36,1423.1C1817.11,1421.36 1816.3,1419.34 1814.57,1418.6L1639.69,1343.23C1637.95,1342.47 1635.93,1343.28 1635.18,1345.02C1634.43,1346.76 1635.23,1348.78 1636.97,1349.53L1811.85,1424.89C1812.29,1425.08 1812.75,1425.17 1813.21,1425.17Z" style="fill:rgb(99,174,178);fill-rule:nonzero;"/>
        <path d="M1802.31,1450.46C1803.64,1450.46 1804.9,1449.68 1805.46,1448.38C1806.21,1446.65 1805.41,1444.63 1803.67,1443.88L1628.79,1368.52C1627.05,1367.76 1625.04,1368.57 1624.29,1370.31C1623.54,1372.04 1624.34,1374.06 1626.08,1374.81L1800.96,1450.18C1801.4,1450.37 1801.86,1450.46 1802.31,1450.46Z" style="fill:rgb(99,174,178);fill-rule:nonzero;"/>
        <path d="M1791.41,1475.74C1792.74,1475.74 1794.01,1474.96 1794.56,1473.67C1795.31,1471.93 1794.51,1469.91 1792.77,1469.16L1617.89,1393.8C1616.17,1393.05 1614.14,1393.85 1613.39,1395.59C1612.64,1397.33 1613.44,1399.35 1615.18,1400.09L1790.06,1475.46C1790.5,1475.65 1790.96,1475.74 1791.41,1475.74Z" style="fill:rgb(99,174,178);fill-rule:nonzero;"/>
        <path d="M1780.52,1501.02C1781.85,1501.02 1783.11,1500.25 1783.67,1498.95C1784.42,1497.21 1783.62,1495.19 1781.88,1494.45L1607,1419.08L1604.28,1425.38L1779.16,1500.74C1779.61,1500.93 1780.07,1501.02 1780.52,1501.02Z" style="fill:rgb(99,174,178);fill-rule:nonzero;"/>
        <path d="M1510.81,1505.05C1511.05,1507.38 1511.7,1509.61 1512.73,1511.7C1514.76,1515.81 1518.22,1519.24 1522.75,1521.23L1762.6,1624.56C1767.81,1626.82 1773.43,1626.69 1778.27,1624.63C1780.39,1623.74 1782.35,1622.5 1784.06,1620.89C1786.05,1619.08 1787.7,1616.81 1788.83,1614.17L1859.25,1450.74L1685.56,1481.39L1681.83,1482.04L1679.73,1478.89L1582.71,1331.6L1512.29,1495.04C1510.88,1498.29 1510.4,1501.75 1510.81,1505.05Z" style="fill:rgb(253,218,62);fill-rule:nonzero;"/>
        <path d="M1510.81,1505.05C1511.05,1507.38 1511.7,1509.61 1512.73,1511.7L1680.25,1485.74C1690.33,1500.11 1753.65,1589.93 1778.27,1624.63C1780.39,1623.74 1782.35,1622.5 1784.06,1620.89C1763.59,1592.06 1714.57,1522.6 1685.56,1481.39C1685.25,1480.94 1684.95,1480.5 1684.64,1480.05C1683.88,1478.99 1682.58,1478.44 1681.31,1478.65L1679.73,1478.89L1510.81,1505.05Z" style="fill:white;fill-rule:nonzero;"/>
        <path d="M1832.17,1455.51L1832.2,1455.45L1859.26,1450.73L1832.17,1455.51ZM1859.26,1450.73L1838.15,1441.64L1859.26,1450.73Z" style="fill:rgb(56,132,175);fill-rule:nonzero;"/>
        <path d="M1606.72,1341.95L1605.56,1341.45L1606.74,1341.91L1606.72,1341.95Z" style="fill:rgb(45,107,140);fill-rule:nonzero;"/>
        <path d="M1832.2,1455.45L1838.15,1441.64L1859.26,1450.73L1832.2,1455.45ZM1600.34,1356.76L1585.18,1333.47L1605.56,1341.45L1606.72,1341.95L1600.34,1356.76Z" style="fill:rgb(180,154,48);fill-rule:nonzero;"/>
        <path d="M1685.56,1481.39C1685.25,1480.94 1684.94,1480.5 1684.64,1480.05C1683.99,1479.14 1682.93,1478.6 1681.84,1478.6C1681.67,1478.6 1681.49,1478.62 1681.31,1478.65L1679.77,1478.88L1660.82,1449.74L1720.1,1475.29L1685.56,1481.39ZM1732.39,1473.12L1654.07,1439.37L1633.72,1408.08L1657.15,1418.18C1673.78,1442.31 1701.12,1456.43 1729.96,1456.43C1734.19,1456.43 1738.44,1456.13 1742.7,1455.51L1743.5,1455.39L1769.46,1466.58L1732.39,1473.12ZM1781.75,1464.41L1756.45,1453.51L1795.52,1447.83L1800.96,1450.18C1801.4,1450.37 1801.86,1450.46 1802.31,1450.46C1803.64,1450.46 1804.9,1449.68 1805.46,1448.38C1805.75,1447.72 1805.81,1447.02 1805.67,1446.36L1838.15,1441.64L1832.2,1455.45L1832.17,1455.51L1781.75,1464.41ZM1650.22,1407.73L1626.97,1397.71L1600.34,1356.76L1606.72,1341.95L1606.74,1341.91L1624.88,1369.37C1624.64,1369.64 1624.44,1369.96 1624.29,1370.31C1623.54,1372.04 1624.34,1374.06 1626.08,1374.81L1629.43,1376.25L1650.22,1407.73Z" style="fill:rgb(230,230,230);fill-rule:nonzero;"/>
        <path d="M1802.31,1450.46C1801.86,1450.46 1801.4,1450.37 1800.96,1450.18L1795.52,1447.83L1805.67,1446.36C1805.81,1447.02 1805.75,1447.72 1805.46,1448.38C1804.9,1449.68 1803.64,1450.46 1802.31,1450.46ZM1629.43,1376.25L1626.08,1374.81C1624.34,1374.06 1623.54,1372.04 1624.29,1370.31C1624.44,1369.96 1624.64,1369.64 1624.88,1369.37L1629.43,1376.25Z" style="fill:rgb(94,160,162);fill-rule:nonzero;"/>
        <path d="M1769.46,1466.58L1743.5,1455.39L1756.45,1453.51L1781.75,1464.41L1769.46,1466.58ZM1657.15,1418.18L1633.72,1408.08L1626.97,1397.71L1650.22,1407.73L1656.17,1416.73C1656.49,1417.21 1656.82,1417.7 1657.15,1418.18Z" style="fill:rgb(94,160,162);fill-rule:nonzero;"/>
        <path d="M1720.1,1475.29L1660.82,1449.74L1654.07,1439.37L1732.39,1473.12L1720.1,1475.29Z" style="fill:rgb(94,160,162);fill-rule:nonzero;"/>
        <path d="M1681.83,1482.04L1679.77,1478.88L1681.31,1478.65C1681.49,1478.62 1681.67,1478.6 1681.84,1478.6C1682.93,1478.6 1683.99,1479.14 1684.64,1480.05C1684.94,1480.5 1685.25,1480.94 1685.56,1481.39L1681.83,1482.04Z" style="fill:rgb(230,230,230);fill-rule:nonzero;"/>
        <path d="M334.071,1691.43C329.378,1691.43 324.995,1688.48 323.376,1683.79L314.826,1659.03L314.813,1659.04L246.167,1460.27L246.179,1460.27L241.041,1445.39C239.002,1439.48 242.123,1433.07 248.028,1431.03L303.897,1411.73L385.897,1383.41C387.122,1382.99 388.37,1382.79 389.595,1382.79C394.276,1382.79 398.64,1385.72 400.256,1390.4L405.394,1405.28L405.407,1405.28L474.053,1604.04L474.041,1604.05L482.592,1628.8C484.63,1634.71 481.523,1641.16 475.617,1643.2L410.35,1665.74L337.748,1690.81C336.53,1691.23 335.29,1691.43 334.071,1691.43Z" style="fill:rgb(15,52,74);fill-rule:nonzero;"/>
        <path d="M251.799,1427.71L334.134,1666.11C336.173,1672.01 342.6,1675.17 348.505,1673.13L486.375,1625.52C492.28,1623.48 495.388,1617.02 493.349,1611.12L411.014,1372.72C408.975,1366.81 402.56,1363.69 396.655,1365.73L258.786,1413.35C252.88,1415.39 249.759,1421.8 251.799,1427.71Z" style="fill:rgb(42,43,42);fill-rule:nonzero;"/>
        <path d="M251.799,1427.71L334.134,1666.11C336.173,1672.01 342.6,1675.17 348.505,1673.13L421.107,1648.06L314.654,1394.05L258.786,1413.35C252.88,1415.39 249.759,1421.8 251.799,1427.71Z" style="fill:rgb(5,6,6);fill-rule:nonzero;"/>
        <path d="M325.571,1641.35L484.811,1586.36L416.165,1387.59L256.924,1442.59L325.571,1641.35Z" style="fill:rgb(201,233,236);fill-rule:nonzero;"/>
        <path d="M398.221,1636.02C400.713,1643.24 408.583,1647.07 415.8,1644.57C423.016,1642.08 426.846,1634.21 424.354,1626.99C421.861,1619.78 413.991,1615.95 406.774,1618.44C399.559,1620.93 395.729,1628.8 398.221,1636.02Z" style="fill:rgb(201,233,236);fill-rule:nonzero;"/>
        <path d="M324.956,1583.07C325.327,1583.07 325.706,1583.01 326.074,1582.89L448.334,1540.66C450.125,1540.04 451.076,1538.09 450.457,1536.3C449.84,1534.51 447.872,1533.57 446.097,1534.18L323.837,1576.4C322.046,1577.02 321.096,1578.98 321.715,1580.76C322.204,1582.18 323.533,1583.07 324.956,1583.07Z" style="fill:white;fill-rule:nonzero;"/>
        <path d="M331.923,1603.25C332.295,1603.25 332.673,1603.19 333.042,1603.06L455.298,1560.84C457.089,1560.22 458.04,1558.26 457.42,1556.48C456.805,1554.69 454.839,1553.74 453.061,1554.35L330.805,1596.58C329.014,1597.2 328.063,1599.15 328.683,1600.94C329.171,1602.36 330.5,1603.25 331.923,1603.25Z" style="fill:white;fill-rule:nonzero;"/>
        <path d="M316.83,1563.3L443.519,1519.54L410.057,1422.65L283.368,1466.41L316.83,1563.3Z" style="fill:white;fill-rule:nonzero;"/>
        <path d="M332.772,1483.11C337.418,1496.56 352.09,1503.7 365.542,1499.05C378.995,1494.41 386.134,1479.74 381.488,1466.28C376.842,1452.83 362.17,1445.69 348.718,1450.34C335.266,1454.98 328.126,1469.66 332.772,1483.11Z" style="fill:rgb(201,233,236);fill-rule:nonzero;"/>
        <path d="M350.944,1551.51L409.403,1531.32L401.712,1509.05C396.137,1492.91 378.531,1484.34 362.388,1489.92C346.245,1495.49 337.678,1513.1 343.253,1529.24L350.944,1551.51Z" style="fill:rgb(201,233,236);fill-rule:nonzero;"/>
        <path d="M1736.31,668.826C1729.54,668.827 1722.45,665.695 1717.27,659.737C1708.47,649.598 1708.54,635.109 1717.45,627.376L1773.07,579.068C1773.26,577.921 1773.54,576.778 1773.89,575.642L1773.85,575.71L1638.57,574.267L1639.68,571.473L1790.5,573.081L1790.56,572.972L1792.69,573.004C1798.76,579.054 1806.14,583.999 1814.62,587.362C1822.5,590.492 1830.64,591.975 1838.64,591.975C1839.2,591.975 1839.76,591.968 1840.33,591.953C1836.93,592.949 1833.46,593.672 1829.92,594.107L1749.34,664.096C1745.67,667.284 1741.07,668.826 1736.31,668.826ZM1610.61,593.029C1609.72,593.029 1608.82,592.864 1607.95,592.518C1604.24,591.045 1602.42,586.842 1603.89,583.132L1607.86,573.146L1638.84,495.073C1632.02,487.945 1627.85,478.266 1627.94,467.62C1628.12,446.762 1644.57,429.901 1665.12,428.843L1670.15,416.19L1698.73,344.168C1699.85,341.332 1702.57,339.604 1705.45,339.604C1706.34,339.604 1707.24,339.769 1708.11,340.116C1711.82,341.589 1713.64,345.79 1712.16,349.501L1706.54,363.678L1706.58,363.71L1679.35,432.318L1623.08,574.102L1623.03,574.102L1617.33,588.464C1616.2,591.3 1613.48,593.029 1610.61,593.029ZM1867.42,468.308C1865.89,467.556 1864.31,466.857 1862.7,466.216C1859.38,464.899 1856.01,463.872 1852.63,463.126L1852.94,462.344L1836.29,449.344C1838.16,448.921 1840.09,448.702 1842.04,448.702C1845.26,448.702 1848.53,449.298 1851.7,450.557C1859.77,453.76 1865.37,460.511 1867.42,468.308Z" style="fill:rgb(15,52,74);fill-rule:nonzero;"/>
        <path d="M1644.59,464.992C1644.4,486.654 1661.8,504.371 1683.47,504.562C1705.13,504.753 1722.85,487.348 1723.04,465.685C1723.23,444.023 1705.82,426.307 1684.16,426.115C1662.5,425.923 1644.78,443.329 1644.59,464.992Z" style="fill:white;fill-rule:nonzero;"/>
        <path d="M1733.92,657.108C1742.73,667.249 1757.08,669.2 1765.99,661.467L1857.6,581.906L1825.71,545.187L1734.1,624.748C1725.19,632.48 1725.12,646.969 1733.92,657.108Z" style="fill:rgb(42,43,42);fill-rule:nonzero;"/>
        <path d="M1778.08,502.75C1764.81,536.204 1781.16,574.086 1814.62,587.362C1848.07,600.639 1885.95,584.282 1899.23,550.828C1912.51,517.375 1896.15,479.493 1862.7,466.216C1829.24,452.94 1791.36,469.297 1778.08,502.75Z" style="fill:white;fill-rule:nonzero;"/>
        <path d="M1624.51,570.518L1808.93,573.244L1852.94,462.344L1711.31,351.78L1624.51,570.518Z" style="fill:white;fill-rule:nonzero;"/>
        <path d="M1624.6,589.889C1628.31,591.361 1632.51,589.547 1633.98,585.836L1728.81,346.872C1730.29,343.161 1728.47,338.96 1724.76,337.487C1721.05,336.015 1716.85,337.829 1715.38,341.54L1620.54,580.503C1619.07,584.213 1620.88,588.416 1624.6,589.889Z" style="fill:rgb(253,218,62);fill-rule:nonzero;"/>
        <path d="M1790.5,573.081L1639.68,571.473L1639.97,570.746L1790.56,572.972L1790.5,573.081Z" style="fill:rgb(69,112,137);fill-rule:nonzero;"/>
        <path d="M1790.56,572.972L1639.97,570.746L1651.75,541.066L1803.32,551.124L1790.56,572.972Z" style="fill:rgb(192,195,197);fill-rule:nonzero;"/>
        <path d="M1639.68,571.473L1651.75,541.066L1639.97,570.746L1639.68,571.473Z" style="fill:rgb(192,174,82);fill-rule:nonzero;"/>
        <path d="M1805.96,605.137C1819.46,610.493 1834.74,603.894 1840.1,590.396L1883.09,482.067C1888.45,468.569 1881.85,453.285 1868.35,447.929C1854.85,442.571 1839.57,449.171 1834.21,462.668L1791.22,570.999C1785.86,584.496 1792.46,599.78 1805.96,605.137Z" style="fill:rgb(253,218,62);fill-rule:nonzero;"/>
        <path d="M438.738,1212.71C413.337,1212.71 388.414,1202.02 370.949,1182.33C370.747,1182.46 370.585,1182.64 370.376,1182.77L346.012,1197.72C343.071,1199.53 339.816,1200.39 336.6,1200.39C330.542,1200.39 324.626,1197.33 321.224,1191.79C316.016,1183.31 318.671,1172.21 327.154,1167L351.518,1152.05C351.978,1151.76 352.47,1151.59 352.945,1151.36C339.683,1112.27 354.63,1067.73 391.254,1045.25C405.972,1036.21 422.291,1031.91 438.414,1031.91C468.838,1031.91 498.574,1047.23 515.625,1075.01C541.71,1117.5 528.362,1173.29 485.868,1199.38C471.157,1208.41 454.85,1212.71 438.738,1212.71Z" style="fill:rgb(15,52,74);fill-rule:nonzero;"/>
        <path d="M389.723,1145.09C370.06,1113.06 380.086,1071.15 412.116,1051.49C444.147,1031.83 486.053,1041.85 505.715,1073.88C525.378,1105.91 515.353,1147.82 483.322,1167.48C451.291,1187.15 409.385,1177.12 389.723,1145.09ZM330.381,1178.96C335.589,1187.45 346.688,1190.1 355.17,1184.9L379.534,1169.94C379.743,1169.81 379.905,1169.64 380.107,1169.5C408.651,1201.69 457.121,1209.82 495.027,1186.55C537.52,1160.46 550.869,1104.67 524.783,1062.18C498.697,1019.69 442.904,1006.34 400.411,1032.42C363.789,1054.9 348.841,1099.45 362.103,1138.53C361.628,1138.77 361.136,1138.94 360.676,1139.22L336.312,1154.18C327.829,1159.38 325.174,1170.48 330.381,1178.96Z" style="fill:white;fill-rule:nonzero;"/>
        <path d="M485.969,1171.79C520.326,1150.7 531.119,1105.59 510.028,1071.24C488.937,1036.88 443.827,1026.09 409.47,1047.18C375.112,1068.27 364.32,1113.38 385.411,1147.74C406.501,1182.09 451.612,1192.89 485.969,1171.79Z" style="fill:rgb(102,60,43);fill-rule:nonzero;"/>
        <path d="M388.589,1145.79C368.574,1113.18 378.816,1070.37 411.42,1050.36C444.025,1030.34 486.835,1040.58 506.85,1073.19C526.866,1105.79 516.624,1148.6 484.02,1168.62C451.415,1188.63 408.604,1178.39 388.589,1145.79ZM382.233,1149.69C404.4,1185.8 451.811,1197.14 487.921,1174.97C524.03,1152.81 535.373,1105.39 513.206,1069.29C491.039,1033.18 443.628,1021.83 407.519,1044C371.409,1066.17 360.066,1113.58 382.233,1149.69Z" style="fill:rgb(29,14,13);fill-rule:nonzero;"/>
        <path d="M396.739,1100.04C399.87,1105.14 406.543,1106.73 411.644,1103.6C416.745,1100.47 418.341,1093.8 415.21,1088.7C412.079,1083.6 405.406,1082 400.305,1085.13C395.204,1088.26 393.607,1094.93 396.739,1100.04Z" style="fill:rgb(232,121,86);fill-rule:nonzero;"/>
        <path d="M395.92,1121.59C397.753,1124.58 401.66,1125.52 404.646,1123.68C407.632,1121.85 408.567,1117.94 406.734,1114.96C404.901,1111.97 400.994,1111.04 398.008,1112.87C395.021,1114.7 394.087,1118.61 395.92,1121.59Z" style="fill:rgb(232,121,86);fill-rule:nonzero;"/>
        <path d="M420.683,1116.24C421.727,1117.94 423.951,1118.47 425.651,1117.43C427.352,1116.38 427.884,1114.16 426.84,1112.46C425.796,1110.76 423.572,1110.23 421.872,1111.27C420.172,1112.31 419.639,1114.54 420.683,1116.24Z" style="fill:rgb(232,121,86);fill-rule:nonzero;"/>
        <path d="M1787.8,1104.38C1778.34,1104.38 1768.84,1101.18 1761.04,1094.63L1719.94,1060.13C1702.33,1045.34 1700.03,1019.03 1714.85,1001.38L1715.96,1000.07C1710.88,1015.74 1715.42,1033.61 1728.8,1044.85L1769.89,1079.35C1777.69,1085.9 1787.2,1089.1 1796.65,1089.1C1808.55,1089.1 1820.38,1084.03 1828.63,1074.2L1847.02,1052.29C1849.44,1049.41 1851.4,1046.3 1852.92,1043.04L1865.71,1053.78C1868.22,1055.89 1868.55,1059.63 1866.44,1062.14L1850.72,1080.86C1849.55,1082.26 1847.87,1082.98 1846.17,1082.98C1844.82,1082.98 1843.47,1082.53 1842.36,1081.59L1833,1073.73L1819.78,1089.48C1811.52,1099.31 1799.7,1104.38 1787.8,1104.38ZM1662.5,999.164C1653.03,999.164 1643.51,995.958 1635.69,989.393L1594.63,954.918C1576.98,940.1 1574.69,913.795 1589.5,896.146L1590.61,894.829C1585.53,910.509 1590.08,928.384 1603.48,939.636L1644.55,974.111C1652.37,980.675 1661.89,983.881 1671.35,983.882C1683.25,983.883 1695.07,978.816 1703.32,968.985L1721.71,947.085C1721.95,946.795 1722.22,946.474 1722.43,946.156C1724.73,943.807 1727.71,942.412 1730.83,942.17C1731.19,942.142 1731.56,942.128 1731.92,942.128C1734.98,942.128 1738.06,943.133 1740.59,945.259C1746,949.802 1746.96,957.687 1742.88,963.326C1742.61,963.589 1742.34,963.911 1742.09,964.201L1740.88,965.65L1736.54,970.812C1736.54,966.99 1734.9,963.195 1731.74,960.541C1729.2,958.415 1726.12,957.41 1723.07,957.41C1722.7,957.41 1722.34,957.424 1721.97,957.453C1718.86,957.694 1715.88,959.088 1713.58,961.438C1713.36,961.755 1713.09,962.077 1712.85,962.367L1711.63,963.817L1711.63,963.816L1694.46,984.267C1686.21,994.097 1674.39,999.164 1662.5,999.164ZM1600.39,878.445L1593.36,872.544C1590.85,870.436 1590.52,866.69 1592.63,864.178L1608.35,845.459C1609.52,844.06 1611.2,843.339 1612.9,843.339C1614.25,843.339 1615.6,843.795 1616.71,844.73L1624.84,851.551C1621.89,853.607 1619.17,856.08 1616.75,858.964L1600.39,878.445Z" style="fill:rgb(15,52,74);fill-rule:nonzero;"/>
        <path d="M1827.94,1046.78L1854.43,1069.02C1855.16,1069.63 1856.26,1069.54 1856.87,1068.8L1878,1043.64C1878.61,1042.91 1878.52,1041.82 1877.79,1041.2L1851.3,1018.96L1827.94,1046.78Z" style="fill:rgb(254,255,255);fill-rule:nonzero;"/>
        <path d="M1625.48,876.797L1598.99,854.558C1598.26,853.943 1598.17,852.851 1598.78,852.118L1619.91,826.956C1620.52,826.223 1621.62,826.127 1622.35,826.743L1648.84,848.982L1625.48,876.797Z" style="fill:rgb(254,255,255);fill-rule:nonzero;"/>
        <path d="M1742.09,964.201L1723.7,986.101C1708.89,1003.75 1711.18,1030.06 1728.8,1044.85L1769.89,1079.35C1787.51,1094.14 1813.82,1091.84 1828.63,1074.2L1847.02,1052.29C1861.84,1034.65 1859.54,1008.34 1841.93,993.551L1800.83,959.048C1783.51,944.502 1757.8,946.475 1742.88,963.326C1742.61,963.589 1742.34,963.911 1742.09,964.201Z" style="fill:rgb(254,255,255);fill-rule:nonzero;"/>
        <path d="M1616.75,858.964L1598.36,880.864C1583.54,898.513 1585.83,924.818 1603.48,939.636L1644.55,974.111C1662.2,988.928 1688.5,986.635 1703.32,968.985L1721.71,947.085C1721.95,946.795 1722.22,946.474 1722.43,946.156C1736.45,928.548 1733.94,902.888 1716.58,888.313L1675.52,853.838C1657.87,839.02 1631.56,841.315 1616.75,858.964Z" style="fill:rgb(254,255,255);fill-rule:nonzero;"/>
        <path d="M1706.47,879.823L1678.43,913.221L1720.49,948.534L1721.71,947.085C1721.95,946.795 1722.22,946.474 1722.43,946.156C1724.73,943.807 1727.71,942.412 1730.83,942.17C1734.24,941.904 1737.76,942.88 1740.59,945.259C1746,949.802 1746.96,957.687 1742.88,963.326C1742.61,963.589 1742.34,963.911 1742.09,964.201L1740.88,965.65L1784.45,1002.23L1812.49,968.837L1706.47,879.823Z" style="fill:rgb(254,255,255);fill-rule:nonzero;"/>
        <path d="M1752.91,973.935L1730.98,1000.05C1721.89,1010.88 1723.3,1026.99 1734.12,1036.08L1777.63,1072.61C1782.53,1076.72 1788.55,1078.7 1794.48,1078.57C1801.63,1078.48 1808.68,1075.39 1813.65,1069.46L1835.58,1043.35C1844.66,1032.52 1843.29,1016.38 1832.47,1007.29L1788.95,970.762C1786.7,968.87 1784.19,967.417 1781.54,966.454C1777.39,964.846 1772.94,964.398 1768.61,965.103C1762.69,966.008 1757.07,968.976 1752.91,973.935Z" style="fill:rgb(42,43,42);fill-rule:nonzero;"/>
        <path d="M1627.56,868.698L1605.63,894.818C1596.54,905.64 1597.95,921.753 1608.77,930.839L1652.28,967.369C1656.86,971.209 1662.34,973.178 1667.88,973.322C1675.45,973.587 1683.06,970.476 1688.3,964.227L1710.23,938.108C1719.32,927.288 1717.94,911.14 1707.12,902.055L1663.61,865.525C1661.03,863.362 1658.12,861.794 1655.11,860.804C1650.84,859.415 1646.31,859.184 1642,860.126C1636.55,861.199 1631.43,864.093 1627.56,868.698Z" style="fill:rgb(42,43,42);fill-rule:nonzero;"/>
        <path d="M1793.93,1078.58C1788.18,1078.58 1782.38,1076.59 1777.63,1072.61L1775.05,1070.44L1777.63,1072.61C1782.38,1076.59 1788.18,1078.58 1793.93,1078.58C1794.11,1078.58 1794.3,1078.57 1794.48,1078.57C1794.3,1078.57 1794.11,1078.58 1793.93,1078.58ZM1810.31,988.69L1801.81,981.556L1810.31,988.689" style="fill:white;fill-rule:nonzero;"/>
        <path d="M1801.81,981.556L1792.18,973.467L1792.18,973.466L1801.81,981.556Z" style="fill:white;fill-rule:nonzero;"/>
        <path d="M1793.93,1078.58C1788.18,1078.58 1782.38,1076.59 1777.63,1072.61L1775.05,1070.44L1792.18,973.466L1801.81,981.556L1810.31,988.69L1794.48,1078.57C1794.3,1078.57 1794.11,1078.58 1793.93,1078.58Z" style="fill:rgb(118,117,118);fill-rule:nonzero;"/>
        <path d="M1764.71,1061.76L1759.71,1057.56L1764.71,1061.76Z" style="fill:white;fill-rule:nonzero;"/>
        <path d="M1764.71,1061.76L1759.71,1057.56L1753.25,1052.14L1768.61,965.103C1769.93,964.888 1771.27,964.78 1772.6,964.78C1775.63,964.78 1778.66,965.337 1781.54,966.454L1764.71,1061.76Z" style="fill:rgb(118,117,118);fill-rule:nonzero;"/>
        <path d="M1667.88,973.322C1662.34,973.178 1656.86,971.209 1652.28,967.369L1648.68,964.341L1652.28,967.369C1656.86,971.209 1662.34,973.178 1667.88,973.322ZM1680.68,879.858L1665.77,867.337L1665.77,867.336L1680.68,879.858Z" style="fill:white;fill-rule:nonzero;"/>
        <path d="M1667.88,973.322C1662.34,973.178 1656.86,971.209 1652.28,967.369L1648.68,964.34L1665.77,867.336L1680.68,879.858L1683.9,882.56L1667.88,973.322Z" style="fill:rgb(118,117,118);fill-rule:nonzero;"/>
        <path d="M1638.34,955.662L1628.17,947.124L1638.34,955.661L1638.34,955.662Z" style="fill:white;fill-rule:nonzero;"/>
        <path d="M1638.34,955.661L1628.17,947.124L1626.84,946.008L1642,860.126C1643.74,859.747 1645.51,859.558 1647.28,859.558C1649.91,859.558 1652.56,859.974 1655.11,860.804L1638.34,955.662" style="fill:rgb(118,117,118);fill-rule:nonzero;"/>
        <path d="M228.425,719.582C222.284,719.582 216.629,715.553 214.84,709.358L153.889,498.337C151.721,490.831 156.048,482.989 163.554,480.82L173.817,477.857L171.438,469.486C170.316,465.539 172.606,461.432 176.552,460.309C177.231,460.116 177.915,460.024 178.587,460.024C181.823,460.024 184.799,462.156 185.728,465.424L188.09,473.734L201.454,469.873L199.109,461.622C197.987,457.675 200.276,453.566 204.222,452.445C204.901,452.252 205.585,452.16 206.257,452.16C209.494,452.16 212.47,454.292 213.398,457.56L215.727,465.751L229.091,461.891L226.779,453.756C225.657,449.811 227.947,445.702 231.894,444.58C232.572,444.388 233.256,444.296 233.928,444.296C237.164,444.296 240.141,446.427 241.069,449.695L243.364,457.768L256.728,453.908L254.45,445.892C253.328,441.946 255.618,437.838 259.564,436.716C260.243,436.523 260.926,436.431 261.599,436.431C264.835,436.431 267.811,438.563 268.739,441.831L271.001,449.785L284.365,445.926L282.121,438.027C280.999,434.082 283.289,429.973 287.235,428.852C287.914,428.659 288.598,428.567 289.27,428.567C292.506,428.567 295.482,430.699 296.41,433.966L298.637,441.802L312.002,437.943L309.791,430.163C308.669,426.217 310.959,422.109 314.905,420.987C315.584,420.794 316.267,420.702 316.94,420.702C320.176,420.702 323.152,422.834 324.081,426.101L326.275,433.82L335.521,431.149C336.832,430.771 338.154,430.59 339.453,430.59C345.594,430.59 351.247,434.619 353.037,440.814L413.989,651.836C416.157,659.341 411.83,667.184 404.323,669.351L232.357,719.023C231.046,719.402 229.724,719.582 228.425,719.582Z" style="fill:rgb(15,52,74);fill-rule:nonzero;"/>
        <path d="M226.025,945.662L213.319,928.062L101.271,772.862L96.157,726.301L114.361,734.64L138.743,745.81L250.79,901.01L263.496,918.609L226.025,945.662Z" style="fill:rgb(15,52,74);fill-rule:nonzero;"/>
        <path d="M165.067,483.289L226.019,694.31C228.187,701.816 236.029,706.144 243.535,703.976L415.502,654.305C423.008,652.136 427.335,644.294 425.167,636.788L364.216,425.767C362.048,418.261 354.206,413.934 346.699,416.102L174.733,465.773C167.227,467.941 162.899,475.783 165.067,483.289Z" style="fill:rgb(254,255,255);fill-rule:nonzero;"/>
        <path d="M323.609,436.183C325.217,441.839 331.106,445.122 336.763,443.514C342.42,441.906 345.703,436.017 344.095,430.36C342.487,424.703 336.598,421.421 330.941,423.029C325.284,424.637 322.001,430.526 323.609,436.183Z" style="fill:rgb(42,43,42);fill-rule:nonzero;"/>
        <path d="M295.939,444.047C297.547,449.704 303.436,452.986 309.093,451.378C314.75,449.771 318.032,443.882 316.424,438.225C314.816,432.568 308.927,429.286 303.271,430.894C297.613,432.501 294.331,438.391 295.939,444.047Z" style="fill:rgb(42,43,42);fill-rule:nonzero;"/>
        <path d="M268.269,451.912C269.876,457.569 275.766,460.851 281.422,459.243C287.079,457.635 290.361,451.747 288.753,446.089C287.146,440.433 281.257,437.15 275.6,438.758C269.943,440.366 266.661,446.255 268.269,451.912Z" style="fill:rgb(42,43,42);fill-rule:nonzero;"/>
        <path d="M240.598,459.776C242.206,465.433 248.095,468.716 253.751,467.107C259.409,465.5 262.691,459.611 261.083,453.954C259.476,448.297 253.586,445.015 247.929,446.623C242.272,448.23 238.99,454.119 240.598,459.776Z" style="fill:rgb(42,43,42);fill-rule:nonzero;"/>
        <path d="M212.927,467.641C214.535,473.298 220.424,476.58 226.081,474.972C231.738,473.365 235.02,467.476 233.413,461.818C231.805,456.162 225.916,452.879 220.259,454.487C214.602,456.095 211.319,461.984 212.927,467.641Z" style="fill:rgb(42,43,42);fill-rule:nonzero;"/>
        <path d="M185.256,475.505C186.864,481.162 192.753,484.445 198.41,482.837C204.067,481.229 207.35,475.34 205.742,469.683C204.134,464.026 198.245,460.744 192.588,462.352C186.931,463.959 183.649,469.848 185.256,475.505Z" style="fill:rgb(42,43,42);fill-rule:nonzero;"/>
        <path d="M335.539,439.205C339.484,438.083 341.774,433.975 340.653,430.029L335.26,411.054C334.138,407.108 330.03,404.818 326.084,405.94C322.138,407.061 319.848,411.169 320.97,415.115L326.363,434.09C327.484,438.037 331.592,440.327 335.539,439.205Z" style="fill:rgb(253,218,62);fill-rule:nonzero;"/>
        <path d="M307.868,447.069C311.814,445.948 314.104,441.839 312.982,437.894L307.589,418.918C306.468,414.972 302.359,412.683 298.413,413.804C294.467,414.926 292.178,419.034 293.299,422.98L298.692,441.955C299.813,445.901 303.922,448.191 307.868,447.069Z" style="fill:rgb(253,218,62);fill-rule:nonzero;"/>
        <path d="M280.197,454.934C284.144,453.813 286.433,449.704 285.312,445.758L279.918,426.783C278.797,422.837 274.689,420.547 270.743,421.669C266.796,422.791 264.507,426.898 265.628,430.844L271.021,449.82C272.143,453.766 276.251,456.055 280.197,454.934Z" style="fill:rgb(253,218,62);fill-rule:nonzero;"/>
        <path d="M252.527,462.798C256.472,461.677 258.763,457.569 257.64,453.623L252.248,434.647C251.126,430.702 247.018,428.412 243.072,429.533C239.126,430.655 236.836,434.763 237.958,438.709L243.351,457.684C244.473,461.63 248.581,463.92 252.527,462.798Z" style="fill:rgb(253,218,62);fill-rule:nonzero;"/>
        <path d="M224.856,470.663C228.802,469.542 231.092,465.433 229.97,461.487L224.578,442.512C223.456,438.566 219.348,436.276 215.401,437.398C211.456,438.52 209.166,442.627 210.287,446.574L215.68,465.549C216.802,469.495 220.91,471.784 224.856,470.663Z" style="fill:rgb(253,218,62);fill-rule:nonzero;"/>
        <path d="M197.186,478.527C201.132,477.406 203.421,473.298 202.3,469.352L196.907,450.377C195.785,446.431 191.677,444.141 187.731,445.263C183.785,446.384 181.495,450.492 182.617,454.438L188.01,473.413C189.131,477.359 193.24,479.649 197.186,478.527Z" style="fill:rgb(253,218,62);fill-rule:nonzero;"/>
        <path d="M195.843,520.943C196.158,520.943 196.472,520.899 196.79,520.813L354.433,475.72C356.25,475.198 357.305,473.299 356.786,471.478C356.264,469.657 354.366,468.625 352.544,469.124L194.902,514.216C193.084,514.739 192.029,516.637 192.548,518.458C192.98,519.962 194.353,520.943 195.843,520.943Z" style="fill:rgb(53,53,58);fill-rule:nonzero;"/>
        <path d="M204.561,551.421C204.876,551.421 205.19,551.377 205.509,551.29L363.151,506.198C364.969,505.675 366.024,503.777 365.505,501.956C364.982,500.134 363.081,499.103 361.263,499.602L203.62,544.694C201.802,545.217 200.748,547.115 201.267,548.937C201.699,550.44 203.071,551.421 204.561,551.421Z" style="fill:rgb(53,53,58);fill-rule:nonzero;"/>
        <path d="M271.168,565.342C271.483,565.342 271.798,565.298 272.116,565.211L371.87,536.679C373.688,536.157 374.742,534.258 374.223,532.437C373.701,530.616 371.806,529.581 369.981,530.083L270.228,558.616C268.41,559.138 267.355,561.037 267.874,562.858C268.306,564.361 269.679,565.342 271.168,565.342Z" style="fill:rgb(53,53,58);fill-rule:nonzero;"/>
        <path d="M221.998,612.38C222.313,612.38 222.627,612.336 222.945,612.25L380.588,567.157C382.406,566.635 383.46,564.736 382.941,562.915C382.419,561.093 380.524,560.059 378.7,560.561L221.058,605.653C219.239,606.176 218.185,608.074 218.704,609.896C219.135,611.398 220.508,612.38 221.998,612.38Z" style="fill:rgb(53,53,58);fill-rule:nonzero;"/>
        <path d="M230.716,642.857C231.031,642.857 231.349,642.814 231.664,642.727L336.463,612.748C338.281,612.226 339.336,610.327 338.817,608.506C338.295,606.688 336.403,605.64 334.575,606.152L229.775,636.131C227.958,636.653 226.903,638.552 227.422,640.374C227.854,641.876 229.227,642.857 230.716,642.857Z" style="fill:rgb(53,53,58);fill-rule:nonzero;"/>
        <path d="M239.432,673.335C239.746,673.335 240.061,673.292 240.379,673.205L398.025,628.112C399.843,627.59 400.897,625.692 400.379,623.871C399.853,622.049 397.965,621.021 396.137,621.517L238.491,666.609C236.673,667.131 235.618,669.03 236.137,670.851C236.569,672.354 237.942,673.335 239.432,673.335Z" style="fill:rgb(53,53,58);fill-rule:nonzero;"/>
        <path d="M213.28,581.898C213.594,581.898 213.909,581.855 214.227,581.768L256.295,569.735C258.114,569.212 259.169,567.314 258.65,565.493C258.127,563.671 256.236,562.64 254.408,563.139L212.339,575.172C210.521,575.695 209.466,577.593 209.985,579.414C210.417,580.917 211.79,581.898 213.28,581.898Z" style="fill:rgb(53,53,58);fill-rule:nonzero;"/>
        <path d="M355.427,607.187C355.738,607.187 356.056,607.143 356.371,607.056L389.307,597.635C391.125,597.112 392.179,595.214 391.66,593.393C391.138,591.571 389.22,590.543 387.418,591.039L354.482,600.46C352.665,600.982 351.61,602.881 352.129,604.703C352.561,606.206 353.934,607.187 355.427,607.187Z" style="fill:rgb(53,53,58);fill-rule:nonzero;"/>
        <path d="M149.921,730.762L107.336,711.253L112.45,757.815L149.921,730.762Z" style="fill:rgb(250,243,211);fill-rule:nonzero;"/>
        <path d="M224.498,913.015L261.969,885.962L149.921,730.762L112.45,757.815L224.498,913.015Z" style="fill:rgb(253,218,62);fill-rule:nonzero;"/>
        <path d="M237.204,930.614L274.675,903.562L261.969,885.962L224.498,913.015L237.204,930.614Z" style="fill:rgb(42,43,42);fill-rule:nonzero;"/>
        <path d="M233.693,906.377L236.472,904.369L124.424,749.17L121.646,751.179L233.693,906.377Z" style="fill:white;fill-rule:nonzero;"/>
        <path d="M248.998,895.329L251.776,893.319L139.729,738.121L136.949,740.13L248.998,895.329Z" style="fill:white;fill-rule:nonzero;"/>
        <path d="M107.336,711.253L125.54,719.593L109.482,730.794L107.336,711.253Z" style="fill:rgb(42,43,42);fill-rule:nonzero;"/>
        <g transform="matrix(1,0,0,1,-12.8869,-274.386)">
            <path d="M1250.34,1730.99L1076.13,1730.99C1076.13,1730.99 1078.59,1507.68 1079.34,1505.3L921.969,1505.3C922.729,1507.68 923.145,1510.2 923.145,1512.82C923.145,1525.1 914.11,1535.34 902.364,1537.31L900.7,1730.99L727.108,1730.99C727.108,1730.99 733.734,1507.68 734.493,1505.3L693.124,1505.3C664.655,1505.3 641.577,1482.22 641.577,1453.75L641.577,1103.54C641.577,1092.29 645.219,1081.93 651.34,1073.47C654.703,1073.85 658.068,1074.25 661.437,1074.73C682.069,1077.66 702.587,1081.43 723.281,1081.43C730.219,1081.43 737.175,1081.01 744.165,1079.99C771.368,1076.02 797.277,1066.5 823.918,1060.09C837.826,1056.75 852.119,1054.11 866.468,1054.09L866.8,1054.09C881.975,1054.09 897.264,1055.48 912.411,1056.31C943.356,1057.99 974.249,1058.83 1005.22,1059.71C1039.56,1060.7 1073.89,1061.13 1108.17,1061.13C1174.48,1061.13 1240.7,1059.51 1307.01,1057.11C1324.36,1065.4 1336.37,1083.03 1336.37,1103.54L1336.37,1453.75C1336.37,1482.22 1313.29,1505.3 1284.83,1505.3L1264.12,1505.3C1264.88,1507.68 1265.29,1510.2 1265.29,1512.82C1265.29,1523.79 1258.08,1533.15 1248.17,1536.42C1248.18,1536.54 1248.24,1536.64 1248.24,1536.76L1250.34,1730.99Z" style="fill:rgb(15,52,74);"/>
            <path d="M1410.74,864.197C1413.79,853.501 1411.79,842.248 1405.25,833.331C1398.72,824.41 1388.73,819.281 1377.83,819.26L648.085,817.782L648.017,817.782C636.936,817.782 626.834,823.025 620.292,832.172C613.738,841.341 611.921,852.799 615.308,863.615L633.158,857.771C631.618,852.856 632.444,847.65 635.42,843.486C638.393,839.329 642.985,836.947 648.019,836.947L648.049,836.947L1377.79,838.426C1382.75,838.435 1387.28,840.765 1390.25,844.817C1393.22,848.869 1394.13,853.979 1392.74,858.84L1410.74,864.197Z" style="fill:rgb(76,76,77);fill-rule:nonzero;"/>
            <path d="M679.798,1482.32L1344.52,1482.32C1352.83,1482.32 1359.56,1475.59 1359.56,1467.28L1359.56,1044.05C1359.56,1035.75 1352.83,1029.01 1344.52,1029.01L679.798,1029.01C671.495,1029.01 664.764,1035.75 664.764,1044.05L664.764,1467.28C664.764,1475.59 671.495,1482.32 679.798,1482.32Z" style="fill:white;fill-rule:nonzero;"/>
            <path d="M685.935,1030.66L1343.29,1030.66C1354.64,1030.66 1364.63,1023.16 1367.81,1012.26L1409.87,867.834C1414.63,851.513 1402.4,835.19 1385.41,835.157L639.243,833.68C621.917,833.646 609.588,850.508 614.874,867.007L661.617,1012.91C665.004,1023.48 674.833,1030.66 685.935,1030.66Z" style="fill:rgb(3,4,4);fill-rule:nonzero;"/>
            <path d="M698.226,1015.63L1330.87,1015.63C1339.26,1015.63 1346.65,1010.69 1348.99,1003.5L1392.1,871.509C1395.61,860.748 1386.58,849.986 1374.01,849.963L650.389,848.687C637.58,848.664 628.463,859.782 632.372,870.661L680.247,1003.93C682.751,1010.9 690.018,1015.63 698.226,1015.63Z" style="fill:rgb(108,192,236);fill-rule:nonzero;"/>
            <path d="M714.206,1043.65L1304.09,1043.65C1308.13,1043.65 1311.41,1040.37 1311.41,1036.33C1311.41,1032.29 1308.13,1029.01 1304.09,1029.01L714.206,1029.01C710.164,1029.01 706.887,1032.29 706.887,1036.33C706.887,1040.37 710.164,1043.65 714.206,1043.65Z" style="fill:rgb(3,4,4);fill-rule:nonzero;"/>
            <path d="M917.614,1439.03L1107.41,1439.03C1110.82,1439.03 1113.58,1436.27 1113.58,1432.86L1113.58,1336.63C1113.58,1333.22 1110.82,1330.46 1107.41,1330.46L917.614,1330.46C914.205,1330.46 911.442,1333.22 911.442,1336.63L911.442,1432.86C911.442,1436.27 914.205,1439.03 917.614,1439.03Z" style="fill:rgb(3,4,4);fill-rule:nonzero;"/>
            <path d="M1016.07,1431.13L1105.07,1431.13C1106.82,1431.13 1108.24,1429.71 1108.24,1427.97L1108.24,1403.95C1108.24,1402.64 1107.18,1401.58 1105.87,1401.58L1016.07,1401.58C1014.76,1401.58 1013.7,1402.64 1013.7,1403.95L1013.7,1428.77C1013.7,1430.07 1014.76,1431.13 1016.07,1431.13Z" style="fill:rgb(82,84,85);fill-rule:nonzero;"/>
            <path d="M920.402,1431.13L1008.55,1431.13C1009.82,1431.13 1010.84,1430.11 1010.84,1428.84L1010.84,1403.88C1010.84,1402.61 1009.82,1401.58 1008.55,1401.58L919.112,1401.58C917.848,1401.58 916.822,1402.61 916.822,1403.88L916.822,1427.55C916.822,1429.53 918.425,1431.13 920.402,1431.13Z" style="fill:rgb(82,84,85);fill-rule:nonzero;"/>
            <path d="M876.111,1102.74L1291.14,1102.74C1292.24,1102.74 1293.14,1101.85 1293.14,1100.75L1293.14,1091.05C1293.14,1089.95 1292.24,1089.06 1291.14,1089.06L876.111,1089.06C875.009,1089.06 874.115,1089.95 874.115,1091.05L874.115,1100.75C874.115,1101.85 875.008,1102.74 876.111,1102.74Z" style="fill:rgb(3,4,4);fill-rule:nonzero;"/>
            <path d="M1171.27,1253.75L1290.48,1253.75C1291.95,1253.75 1293.14,1252.56 1293.14,1251.09L1293.14,1217.61C1293.14,1216.14 1291.95,1214.95 1290.48,1214.95L1171.27,1214.95C1169.8,1214.95 1168.61,1216.14 1168.61,1217.61L1168.61,1251.09C1168.61,1252.56 1169.8,1253.75 1171.27,1253.75Z" style="fill:rgb(3,4,4);fill-rule:nonzero;"/>
            <path d="M1128.11,1253.75L1162.2,1253.75C1163.5,1253.75 1164.55,1252.7 1164.55,1251.4L1164.55,1217.31C1164.55,1216 1163.5,1214.95 1162.2,1214.95L1128.11,1214.95C1126.8,1214.95 1125.75,1216 1125.75,1217.31L1125.75,1251.4C1125.75,1252.7 1126.8,1253.75 1128.11,1253.75Z" style="fill:rgb(3,4,4);fill-rule:nonzero;"/>
            <path d="M1085.24,1253.75L1119.33,1253.75C1120.64,1253.75 1121.69,1252.7 1121.69,1251.4L1121.69,1217.31C1121.69,1216 1120.64,1214.95 1119.33,1214.95L1085.24,1214.95C1083.94,1214.95 1082.89,1216 1082.89,1217.31L1082.89,1251.4C1082.89,1252.7 1083.94,1253.75 1085.24,1253.75Z" style="fill:rgb(3,4,4);fill-rule:nonzero;"/>
            <path d="M1042.38,1253.75L1076.47,1253.75C1077.78,1253.75 1078.83,1252.7 1078.83,1251.4L1078.83,1217.31C1078.83,1216 1077.78,1214.95 1076.47,1214.95L1042.38,1214.95C1041.08,1214.95 1040.03,1216 1040.03,1217.31L1040.03,1251.4C1040.03,1252.7 1041.08,1253.75 1042.38,1253.75Z" style="fill:rgb(3,4,4);fill-rule:nonzero;"/>
            <path d="M999.522,1253.75L1033.61,1253.75C1034.92,1253.75 1035.97,1252.7 1035.97,1251.4L1035.97,1217.31C1035.97,1216 1034.92,1214.95 1033.61,1214.95L999.522,1214.95C998.22,1214.95 997.165,1216 997.165,1217.31L997.165,1251.4C997.165,1252.7 998.22,1253.75 999.522,1253.75Z" style="fill:rgb(3,4,4);fill-rule:nonzero;"/>
            <path d="M956.661,1253.75L990.752,1253.75C992.054,1253.75 993.11,1252.7 993.11,1251.4L993.11,1217.31C993.11,1216 992.054,1214.95 990.752,1214.95L956.661,1214.95C955.359,1214.95 954.303,1216 954.303,1217.31L954.303,1251.4C954.303,1252.7 955.359,1253.75 956.661,1253.75Z" style="fill:rgb(3,4,4);fill-rule:nonzero;"/>
            <path d="M913.8,1253.75L947.891,1253.75C949.193,1253.75 950.248,1252.7 950.248,1251.4L950.248,1217.31C950.248,1216 949.193,1214.95 947.891,1214.95L913.8,1214.95C912.498,1214.95 911.442,1216 911.442,1217.31L911.442,1251.4C911.442,1252.7 912.498,1253.75 913.8,1253.75Z" style="fill:rgb(3,4,4);fill-rule:nonzero;"/>
            <path d="M870.938,1253.75L905.029,1253.75C906.332,1253.75 907.387,1252.7 907.387,1251.4L907.387,1217.31C907.387,1216 906.332,1214.95 905.03,1214.95L870.938,1214.95C869.636,1214.95 868.581,1216 868.581,1217.31L868.581,1251.4C868.581,1252.7 869.636,1253.75 870.938,1253.75Z" style="fill:rgb(3,4,4);fill-rule:nonzero;"/>
            <path d="M828.078,1253.75L862.168,1253.75C863.471,1253.75 864.526,1252.7 864.526,1251.4L864.526,1217.31C864.526,1216 863.471,1214.95 862.169,1214.95L828.077,1214.95C826.775,1214.95 825.72,1216 825.72,1217.31L825.72,1251.4C825.72,1252.7 826.775,1253.75 828.078,1253.75Z" style="fill:rgb(3,4,4);fill-rule:nonzero;"/>
            <path d="M785.216,1253.75L819.307,1253.75C820.609,1253.75 821.665,1252.7 821.665,1251.4L821.665,1217.31C821.665,1216 820.609,1214.95 819.307,1214.95L785.216,1214.95C783.914,1214.95 782.858,1216 782.858,1217.31L782.858,1251.4C782.858,1252.7 783.914,1253.75 785.216,1253.75Z" style="fill:rgb(3,4,4);fill-rule:nonzero;"/>
            <path d="M742.355,1253.75L776.446,1253.75C777.748,1253.75 778.804,1252.7 778.804,1251.4L778.804,1217.31C778.804,1216 777.748,1214.95 776.446,1214.95L742.354,1214.95C741.053,1214.95 739.997,1216 739.997,1217.31L739.997,1251.4C739.997,1252.7 741.053,1253.75 742.355,1253.75Z" style="fill:rgb(3,4,4);fill-rule:nonzero;"/>
            <path d="M1216.66,1207.42L1290.82,1207.42C1292.1,1207.42 1293.14,1206.38 1293.14,1205.1L1293.14,1170.93C1293.14,1169.65 1292.1,1168.61 1290.82,1168.61L1216.66,1168.61C1215.37,1168.61 1214.33,1169.65 1214.33,1170.93L1214.33,1205.1C1214.33,1206.38 1215.37,1207.42 1216.66,1207.42Z" style="fill:rgb(3,4,4);fill-rule:nonzero;"/>
            <path d="M1170.97,1207.42L1205.06,1207.42C1206.36,1207.42 1207.42,1206.36 1207.42,1205.06L1207.42,1170.97C1207.42,1169.67 1206.36,1168.61 1205.06,1168.61L1170.97,1168.61C1169.66,1168.61 1168.61,1169.67 1168.61,1170.97L1168.61,1205.06C1168.61,1206.36 1169.66,1207.42 1170.97,1207.42Z" style="fill:rgb(3,4,4);fill-rule:nonzero;"/>
            <path d="M1128.11,1207.42L1162.2,1207.42C1163.5,1207.42 1164.55,1206.36 1164.55,1205.06L1164.55,1170.97C1164.55,1169.67 1163.5,1168.61 1162.2,1168.61L1128.11,1168.61C1126.8,1168.61 1125.75,1169.67 1125.75,1170.97L1125.75,1205.06C1125.75,1206.36 1126.8,1207.42 1128.11,1207.42Z" style="fill:rgb(3,4,4);fill-rule:nonzero;"/>
            <path d="M1085.24,1207.42L1119.33,1207.42C1120.64,1207.42 1121.69,1206.36 1121.69,1205.06L1121.69,1170.97C1121.69,1169.67 1120.64,1168.61 1119.33,1168.61L1085.24,1168.61C1083.94,1168.61 1082.89,1169.67 1082.89,1170.97L1082.89,1205.06C1082.89,1206.36 1083.94,1207.42 1085.24,1207.42Z" style="fill:rgb(3,4,4);fill-rule:nonzero;"/>
            <path d="M1042.38,1207.42L1076.47,1207.42C1077.78,1207.42 1078.83,1206.36 1078.83,1205.06L1078.83,1170.97C1078.83,1169.67 1077.78,1168.61 1076.47,1168.61L1042.38,1168.61C1041.08,1168.61 1040.03,1169.67 1040.03,1170.97L1040.03,1205.06C1040.03,1206.36 1041.08,1207.42 1042.38,1207.42Z" style="fill:rgb(3,4,4);fill-rule:nonzero;"/>
            <path d="M999.522,1207.42L1033.61,1207.42C1034.92,1207.42 1035.97,1206.36 1035.97,1205.06L1035.97,1170.97C1035.97,1169.67 1034.92,1168.61 1033.61,1168.61L999.522,1168.61C998.22,1168.61 997.165,1169.67 997.165,1170.97L997.165,1205.06C997.165,1206.36 998.22,1207.42 999.522,1207.42Z" style="fill:rgb(3,4,4);fill-rule:nonzero;"/>
            <path d="M956.661,1207.42L990.752,1207.42C992.054,1207.42 993.11,1206.36 993.11,1205.06L993.11,1170.97C993.11,1169.67 992.054,1168.61 990.752,1168.61L956.661,1168.61C955.359,1168.61 954.303,1169.67 954.303,1170.97L954.303,1205.06C954.303,1206.36 955.359,1207.42 956.661,1207.42Z" style="fill:rgb(3,4,4);fill-rule:nonzero;"/>
            <path d="M913.799,1207.42L947.891,1207.42C949.193,1207.42 950.248,1206.36 950.248,1205.06L950.248,1170.97C950.248,1169.67 949.192,1168.61 947.891,1168.61L913.8,1168.61C912.498,1168.61 911.442,1169.67 911.442,1170.97L911.442,1205.06C911.442,1206.36 912.498,1207.42 913.799,1207.42Z" style="fill:rgb(3,4,4);fill-rule:nonzero;"/>
            <path d="M870.938,1207.42L905.03,1207.42C906.332,1207.42 907.387,1206.36 907.387,1205.06L907.387,1170.97C907.387,1169.67 906.332,1168.61 905.029,1168.61L870.938,1168.61C869.636,1168.61 868.581,1169.67 868.581,1170.97L868.581,1205.06C868.581,1206.36 869.636,1207.42 870.938,1207.42Z" style="fill:rgb(3,4,4);fill-rule:nonzero;"/>
            <path d="M828.077,1207.42L862.168,1207.42C863.471,1207.42 864.526,1206.36 864.526,1205.06L864.526,1170.97C864.526,1169.67 863.471,1168.61 862.168,1168.61L828.077,1168.61C826.775,1168.61 825.72,1169.67 825.72,1170.97L825.72,1205.06C825.72,1206.36 826.775,1207.42 828.077,1207.42Z" style="fill:rgb(3,4,4);fill-rule:nonzero;"/>
            <path d="M785.216,1207.42L819.307,1207.42C820.609,1207.42 821.665,1206.36 821.665,1205.06L821.665,1170.97C821.665,1169.67 820.609,1168.61 819.307,1168.61L785.216,1168.61C783.914,1168.61 782.858,1169.67 782.858,1170.97L782.858,1205.06C782.858,1206.36 783.914,1207.42 785.216,1207.42Z" style="fill:rgb(3,4,4);fill-rule:nonzero;"/>
            <path d="M742.354,1207.42L776.446,1207.42C777.748,1207.42 778.804,1206.36 778.804,1205.06L778.804,1170.97C778.804,1169.67 777.748,1168.61 776.446,1168.61L742.355,1168.61C741.053,1168.61 739.997,1169.67 739.997,1170.97L739.997,1205.06C739.997,1206.36 741.053,1207.42 742.354,1207.42Z" style="fill:rgb(3,4,4);fill-rule:nonzero;"/>
            <path d="M1256.31,1162.96L1291.15,1162.96C1292.25,1162.96 1293.14,1162.08 1293.14,1160.98L1293.14,1137.48C1293.14,1136.39 1292.25,1135.5 1291.15,1135.5L1256.31,1135.5C1255.22,1135.5 1254.33,1136.39 1254.33,1137.48L1254.33,1160.98C1254.33,1162.08 1255.22,1162.96 1256.31,1162.96Z" style="fill:rgb(3,4,4);fill-rule:nonzero;"/>
            <path d="M1213.45,1162.96L1248.29,1162.96C1249.39,1162.96 1250.28,1162.08 1250.28,1160.98L1250.28,1137.48C1250.28,1136.39 1249.39,1135.5 1248.29,1135.5L1213.45,1135.5C1212.36,1135.5 1211.47,1136.39 1211.47,1137.48L1211.47,1160.98C1211.47,1162.08 1212.36,1162.96 1213.45,1162.96Z" style="fill:rgb(3,4,4);fill-rule:nonzero;"/>
            <path d="M1170.59,1162.96L1205.43,1162.96C1206.53,1162.96 1207.42,1162.08 1207.42,1160.98L1207.42,1137.48C1207.42,1136.39 1206.53,1135.5 1205.43,1135.5L1170.59,1135.5C1169.5,1135.5 1168.61,1136.39 1168.61,1137.48L1168.61,1160.98C1168.61,1162.08 1169.5,1162.96 1170.59,1162.96Z" style="fill:rgb(3,4,4);fill-rule:nonzero;"/>
            <path d="M1127.73,1162.96L1162.57,1162.96C1163.67,1162.96 1164.55,1162.08 1164.55,1160.98L1164.55,1137.48C1164.55,1136.39 1163.67,1135.5 1162.57,1135.5L1127.73,1135.5C1126.64,1135.5 1125.75,1136.39 1125.75,1137.48L1125.75,1160.98C1125.75,1162.08 1126.64,1162.96 1127.73,1162.96Z" style="fill:rgb(3,4,4);fill-rule:nonzero;"/>
            <path d="M1084.87,1162.96L1119.71,1162.96C1120.8,1162.96 1121.69,1162.08 1121.69,1160.98L1121.69,1137.48C1121.69,1136.39 1120.8,1135.5 1119.71,1135.5L1084.87,1135.5C1083.77,1135.5 1082.89,1136.39 1082.89,1137.48L1082.89,1160.98C1082.89,1162.08 1083.77,1162.96 1084.87,1162.96Z" style="fill:rgb(3,4,4);fill-rule:nonzero;"/>
            <path d="M1042.01,1162.96L1076.85,1162.96C1077.94,1162.96 1078.83,1162.08 1078.83,1160.98L1078.83,1137.48C1078.83,1136.39 1077.94,1135.5 1076.85,1135.5L1042.01,1135.5C1040.91,1135.5 1040.03,1136.39 1040.03,1137.48L1040.03,1160.98C1040.03,1162.08 1040.91,1162.96 1042.01,1162.96Z" style="fill:rgb(3,4,4);fill-rule:nonzero;"/>
            <path d="M999.148,1162.96L1033.99,1162.96C1035.08,1162.96 1035.97,1162.08 1035.97,1160.98L1035.97,1137.48C1035.97,1136.39 1035.08,1135.5 1033.99,1135.5L999.147,1135.5C998.052,1135.5 997.165,1136.39 997.165,1137.48L997.165,1160.98C997.165,1162.08 998.052,1162.96 999.148,1162.96Z" style="fill:rgb(3,4,4);fill-rule:nonzero;"/>
            <path d="M956.287,1162.96L991.126,1162.96C992.222,1162.96 993.11,1162.08 993.11,1160.98L993.11,1137.48C993.11,1136.39 992.222,1135.5 991.126,1135.5L956.287,1135.5C955.191,1135.5 954.303,1136.39 954.303,1137.48L954.303,1160.98C954.303,1162.08 955.191,1162.96 956.287,1162.96Z" style="fill:rgb(3,4,4);fill-rule:nonzero;"/>
            <path d="M913.425,1162.96L948.265,1162.96C949.36,1162.96 950.248,1162.08 950.248,1160.98L950.248,1137.48C950.248,1136.39 949.36,1135.5 948.265,1135.5L913.425,1135.5C912.33,1135.5 911.442,1136.39 911.442,1137.48L911.442,1160.98C911.442,1162.08 912.33,1162.96 913.425,1162.96Z" style="fill:rgb(3,4,4);fill-rule:nonzero;"/>
            <path d="M870.564,1162.96L905.404,1162.96C906.5,1162.96 907.387,1162.08 907.387,1160.98L907.387,1137.48C907.387,1136.39 906.499,1135.5 905.404,1135.5L870.564,1135.5C869.468,1135.5 868.581,1136.39 868.581,1137.48L868.581,1160.98C868.581,1162.08 869.468,1162.96 870.564,1162.96Z" style="fill:rgb(3,4,4);fill-rule:nonzero;"/>
            <path d="M827.703,1162.96L862.543,1162.96C863.638,1162.96 864.526,1162.08 864.526,1160.98L864.526,1137.48C864.526,1136.39 863.638,1135.5 862.543,1135.5L827.703,1135.5C826.607,1135.5 825.72,1136.39 825.72,1137.48L825.72,1160.98C825.72,1162.08 826.607,1162.96 827.703,1162.96Z" style="fill:rgb(3,4,4);fill-rule:nonzero;"/>
            <path d="M784.842,1162.96L819.681,1162.96C820.777,1162.96 821.665,1162.08 821.665,1160.98L821.665,1137.48C821.665,1136.39 820.777,1135.5 819.681,1135.5L784.842,1135.5C783.747,1135.5 782.858,1136.39 782.858,1137.48L782.858,1160.98C782.858,1162.08 783.747,1162.96 784.842,1162.96Z" style="fill:rgb(3,4,4);fill-rule:nonzero;"/>
            <path d="M741.98,1162.96L776.82,1162.96C777.916,1162.96 778.804,1162.08 778.804,1160.98L778.804,1137.48C778.804,1136.39 777.916,1135.5 776.82,1135.5L741.98,1135.5C740.885,1135.5 739.997,1136.39 739.997,1137.48L739.997,1160.98C739.997,1162.08 740.885,1162.96 741.98,1162.96Z" style="fill:rgb(3,4,4);fill-rule:nonzero;"/>
            <path d="M1128.11,1300.09L1162.2,1300.09C1163.5,1300.09 1164.55,1299.04 1164.55,1297.73L1164.55,1263.64C1164.55,1262.34 1163.5,1261.28 1162.2,1261.28L1128.11,1261.28C1126.8,1261.28 1125.75,1262.34 1125.75,1263.64L1125.75,1297.73C1125.75,1299.04 1126.8,1300.09 1128.11,1300.09Z" style="fill:rgb(3,4,4);fill-rule:nonzero;"/>
            <path d="M1170.97,1300.09L1205.06,1300.09C1206.36,1300.09 1207.42,1299.04 1207.42,1297.73L1207.42,1263.64C1207.42,1262.34 1206.36,1261.28 1205.06,1261.28L1170.97,1261.28C1169.66,1261.28 1168.61,1262.34 1168.61,1263.64L1168.61,1297.73C1168.61,1299.04 1169.66,1300.09 1170.97,1300.09Z" style="fill:rgb(3,4,4);fill-rule:nonzero;"/>
            <path d="M1213.83,1300.09L1247.92,1300.09C1249.22,1300.09 1250.28,1299.04 1250.28,1297.73L1250.28,1263.64C1250.28,1262.34 1249.22,1261.28 1247.92,1261.28L1213.83,1261.28C1212.53,1261.28 1211.47,1262.34 1211.47,1263.64L1211.47,1297.73C1211.47,1299.04 1212.53,1300.09 1213.83,1300.09Z" style="fill:rgb(3,4,4);fill-rule:nonzero;"/>
            <path d="M1256.69,1300.09L1290.78,1300.09C1292.08,1300.09 1293.14,1299.04 1293.14,1297.73L1293.14,1263.64C1293.14,1262.34 1292.08,1261.28 1290.78,1261.28L1256.69,1261.28C1255.39,1261.28 1254.33,1262.34 1254.33,1263.64L1254.33,1297.73C1254.33,1299.04 1255.39,1300.09 1256.69,1300.09Z" style="fill:rgb(3,4,4);fill-rule:nonzero;"/>
            <path d="M1085.24,1300.09L1119.33,1300.09C1120.64,1300.09 1121.69,1299.04 1121.69,1297.73L1121.69,1263.64C1121.69,1262.34 1120.64,1261.28 1119.33,1261.28L1085.24,1261.28C1083.94,1261.28 1082.89,1262.34 1082.89,1263.64L1082.89,1297.73C1082.89,1299.04 1083.94,1300.09 1085.24,1300.09Z" style="fill:rgb(3,4,4);fill-rule:nonzero;"/>
            <path d="M914.38,1300.09L1075.89,1300.09C1077.52,1300.09 1078.83,1298.78 1078.83,1297.15L1078.83,1264.22C1078.83,1262.6 1077.52,1261.28 1075.89,1261.28L914.38,1261.28C912.757,1261.28 911.442,1262.6 911.442,1264.22L911.442,1297.15C911.442,1298.78 912.757,1300.09 914.38,1300.09Z" style="fill:rgb(3,4,4);fill-rule:nonzero;"/>
            <path d="M870.938,1300.09L905.03,1300.09C906.332,1300.09 907.387,1299.04 907.387,1297.73L907.387,1263.64C907.387,1262.34 906.332,1261.28 905.029,1261.28L870.938,1261.28C869.636,1261.28 868.581,1262.34 868.581,1263.64L868.581,1297.73C868.581,1299.04 869.636,1300.09 870.938,1300.09Z" style="fill:rgb(3,4,4);fill-rule:nonzero;"/>
            <path d="M828.077,1300.09L862.168,1300.09C863.471,1300.09 864.526,1299.04 864.526,1297.73L864.526,1263.64C864.526,1262.34 863.471,1261.28 862.168,1261.28L828.077,1261.28C826.775,1261.28 825.72,1262.34 825.72,1263.64L825.72,1297.73C825.72,1299.04 826.775,1300.09 828.077,1300.09Z" style="fill:rgb(108,192,236);fill-rule:nonzero;"/>
            <path d="M785.216,1300.09L819.307,1300.09C820.609,1300.09 821.665,1299.04 821.665,1297.73L821.665,1263.64C821.665,1262.34 820.609,1261.28 819.307,1261.28L785.216,1261.28C783.914,1261.28 782.858,1262.34 782.858,1263.64L782.858,1297.73C782.858,1299.04 783.914,1300.09 785.216,1300.09Z" style="fill:rgb(3,4,4);fill-rule:nonzero;"/>
            <path d="M742.354,1300.09L776.446,1300.09C777.748,1300.09 778.804,1299.04 778.804,1297.73L778.804,1263.64C778.804,1262.34 777.748,1261.28 776.446,1261.28L742.355,1261.28C741.053,1261.28 739.997,1262.34 739.997,1263.64L739.997,1297.73C739.997,1299.04 741.053,1300.09 742.354,1300.09Z" style="fill:rgb(3,4,4);fill-rule:nonzero;"/>
            <path d="M1255.73,1128.47L1291.74,1128.47C1292.51,1128.47 1293.14,1127.84 1293.14,1127.07L1293.14,1116.14C1293.14,1115.37 1292.51,1114.74 1291.74,1114.74L1255.73,1114.74C1254.96,1114.74 1254.33,1115.37 1254.33,1116.14L1254.33,1127.07C1254.33,1127.84 1254.96,1128.47 1255.73,1128.47Z" style="fill:rgb(108,192,236);fill-rule:nonzero;"/>
            <path d="M1212.87,1128.47L1248.87,1128.47C1249.65,1128.47 1250.28,1127.84 1250.28,1127.07L1250.28,1116.14C1250.28,1115.37 1249.65,1114.74 1248.87,1114.74L1212.87,1114.74C1212.1,1114.74 1211.47,1115.37 1211.47,1116.14L1211.47,1127.07C1211.47,1127.84 1212.1,1128.47 1212.87,1128.47Z" style="fill:rgb(108,192,236);fill-rule:nonzero;"/>
            <path d="M1170.01,1128.47L1206.01,1128.47C1206.79,1128.47 1207.42,1127.84 1207.42,1127.07L1207.42,1116.14C1207.42,1115.37 1206.79,1114.74 1206.01,1114.74L1170.01,1114.74C1169.24,1114.74 1168.61,1115.37 1168.61,1116.14L1168.61,1127.07C1168.61,1127.84 1169.24,1128.47 1170.01,1128.47Z" style="fill:rgb(108,192,236);fill-rule:nonzero;"/>
            <path d="M1127.15,1128.47L1163.15,1128.47C1163.93,1128.47 1164.55,1127.84 1164.55,1127.07L1164.55,1116.14C1164.55,1115.37 1163.93,1114.74 1163.15,1114.74L1127.15,1114.74C1126.38,1114.74 1125.75,1115.37 1125.75,1116.14L1125.75,1127.07C1125.75,1127.84 1126.38,1128.47 1127.15,1128.47Z" style="fill:rgb(3,4,4);fill-rule:nonzero;"/>
            <path d="M1084.29,1128.47L1120.29,1128.47C1121.07,1128.47 1121.69,1127.84 1121.69,1127.07L1121.69,1116.14C1121.69,1115.37 1121.07,1114.74 1120.29,1114.74L1084.29,1114.74C1083.51,1114.74 1082.89,1115.37 1082.89,1116.14L1082.89,1127.07C1082.89,1127.84 1083.51,1128.47 1084.29,1128.47Z" style="fill:rgb(3,4,4);fill-rule:nonzero;"/>
            <path d="M1041.43,1128.47L1077.43,1128.47C1078.2,1128.47 1078.83,1127.84 1078.83,1127.07L1078.83,1116.14C1078.83,1115.37 1078.2,1114.74 1077.43,1114.74L1041.43,1114.74C1040.65,1114.74 1040.03,1115.37 1040.03,1116.14L1040.03,1127.07C1040.03,1127.84 1040.65,1128.47 1041.43,1128.47Z" style="fill:rgb(3,4,4);fill-rule:nonzero;"/>
            <path d="M998.567,1128.47L1034.57,1128.47C1035.34,1128.47 1035.97,1127.84 1035.97,1127.07L1035.97,1116.14C1035.97,1115.37 1035.34,1114.74 1034.57,1114.74L998.567,1114.74C997.792,1114.74 997.165,1115.37 997.165,1116.14L997.165,1127.07C997.165,1127.84 997.792,1128.47 998.567,1128.47Z" style="fill:rgb(3,4,4);fill-rule:nonzero;"/>
            <path d="M955.706,1128.47L991.707,1128.47C992.482,1128.47 993.11,1127.84 993.11,1127.07L993.11,1116.14C993.11,1115.37 992.482,1114.74 991.708,1114.74L955.706,1114.74C954.931,1114.74 954.303,1115.37 954.303,1116.14L954.303,1127.07C954.303,1127.84 954.931,1128.47 955.706,1128.47Z" style="fill:rgb(3,4,4);fill-rule:nonzero;"/>
            <path d="M912.844,1128.47L948.846,1128.47C949.62,1128.47 950.248,1127.84 950.248,1127.07L950.248,1116.14C950.248,1115.37 949.62,1114.74 948.846,1114.74L912.844,1114.74C912.07,1114.74 911.442,1115.37 911.442,1116.14L911.442,1127.07C911.442,1127.84 912.07,1128.47 912.844,1128.47Z" style="fill:rgb(3,4,4);fill-rule:nonzero;"/>
            <path d="M869.983,1128.47L905.985,1128.47C906.759,1128.47 907.387,1127.84 907.387,1127.07L907.387,1116.14C907.387,1115.37 906.759,1114.74 905.985,1114.74L869.983,1114.74C869.208,1114.74 868.581,1115.37 868.581,1116.14L868.581,1127.07C868.581,1127.84 869.208,1128.47 869.983,1128.47Z" style="fill:rgb(3,4,4);fill-rule:nonzero;"/>
            <path d="M827.122,1128.47L863.124,1128.47C863.898,1128.47 864.526,1127.84 864.526,1127.07L864.526,1116.14C864.526,1115.37 863.898,1114.74 863.124,1114.74L827.122,1114.74C826.348,1114.74 825.72,1115.37 825.72,1116.14L825.72,1127.07C825.72,1127.84 826.347,1128.47 827.122,1128.47Z" style="fill:rgb(3,4,4);fill-rule:nonzero;"/>
            <path d="M784.261,1128.47L820.262,1128.47C821.037,1128.47 821.665,1127.84 821.665,1127.07L821.665,1116.14C821.665,1115.37 821.037,1114.74 820.262,1114.74L784.261,1114.74C783.486,1114.74 782.858,1115.37 782.858,1116.14L782.858,1127.07C782.858,1127.84 783.486,1128.47 784.261,1128.47Z" style="fill:rgb(3,4,4);fill-rule:nonzero;"/>
            <path d="M741.399,1128.47L777.401,1128.47C778.176,1128.47 778.804,1127.84 778.804,1127.07L778.804,1116.14C778.804,1115.37 778.176,1114.74 777.401,1114.74L741.399,1114.74C740.625,1114.74 739.997,1115.37 739.997,1116.14L739.997,1127.07C739.997,1127.84 740.625,1128.47 741.399,1128.47Z" style="fill:rgb(3,4,4);fill-rule:nonzero;"/>
            <path d="M741.859,1102.29L791.32,1102.29C792.349,1102.29 793.183,1101.45 793.183,1100.42L793.183,1091.38C793.183,1090.35 792.349,1089.52 791.32,1089.52L741.859,1089.52C740.831,1089.52 739.997,1090.35 739.997,1091.38L739.997,1100.42C739.997,1101.45 740.831,1102.29 741.859,1102.29Z" style="fill:rgb(3,4,4);fill-rule:nonzero;"/>
            <path d="M802.262,1095.9C802.262,1100.35 805.865,1103.95 810.312,1103.95C814.757,1103.95 818.361,1100.35 818.361,1095.9C818.361,1091.46 814.757,1087.85 810.312,1087.85C805.865,1087.85 802.262,1091.46 802.262,1095.9Z" style="fill:rgb(108,192,236);fill-rule:nonzero;"/>
            <path d="M823.062,1095.9C823.062,1100.35 826.666,1103.95 831.111,1103.95C835.558,1103.95 839.161,1100.35 839.161,1095.9C839.161,1091.46 835.558,1087.85 831.111,1087.85C826.666,1087.85 823.062,1091.46 823.062,1095.9Z" style="fill:rgb(108,192,236);fill-rule:nonzero;"/>
            <path d="M845.123,1095.9C845.123,1100.35 848.727,1103.95 853.173,1103.95C857.618,1103.95 861.222,1100.35 861.222,1095.9C861.222,1091.46 857.618,1087.85 853.173,1087.85C848.727,1087.85 845.123,1091.46 845.123,1095.9Z" style="fill:rgb(108,192,236);fill-rule:nonzero;"/>
            <path d="M1095,1338.58L1095,1361.23C1095,1363.43 1095.09,1365.63 1095.27,1367.78C1095.96,1377.18 1098.21,1386.12 1101.73,1394.41L1101.83,1394.6C1104.48,1400.92 1107.92,1406.84 1112,1412.25L1112.05,1412.34C1113.65,1414.45 1115.35,1416.51 1117.09,1418.43L1117.23,1418.57C1120.48,1422.19 1124.06,1425.49 1127.86,1428.43C1142.35,1439.84 1160.64,1446.67 1180.44,1446.67L1189.61,1446.67C1211.48,1446.67 1231.46,1438.38 1246.59,1424.76C1261.35,1411.51 1271.48,1393.27 1274.23,1372.73C1274.78,1368.97 1275.06,1365.12 1275.06,1361.23L1275.06,1338.58C1275.06,1318.59 1268.14,1300.17 1256.54,1285.64C1253.1,1281.28 1249.25,1277.29 1245.08,1273.76C1235.45,1265.47 1223.95,1259.28 1211.34,1255.98C1209.14,1255.38 1206.89,1254.88 1204.65,1254.51C1199.79,1253.59 1194.75,1253.13 1189.61,1253.13L1180.44,1253.13C1176.82,1253.13 1173.25,1253.36 1169.76,1253.87C1164.54,1254.46 1159.45,1255.61 1154.54,1257.17C1141.52,1261.34 1129.79,1268.58 1120.3,1278.03L1120.16,1278.16L1120.3,1284.12L1120.3,1301.68C1120.3,1307.13 1115.85,1311.63 1110.4,1311.63L1109.07,1311.63C1106.69,1311.63 1104.48,1310.75 1102.74,1309.33L1102.7,1309.33L1101.41,1306.17C1101.23,1306.54 1101.09,1306.95 1100.96,1307.36C1098.07,1314.61 1096.14,1322.35 1095.41,1330.42C1095.13,1333.13 1095,1335.83 1095,1338.58Z" style="fill:rgb(251,182,134);fill-rule:nonzero;"/>
            <path d="M1248.04,1379.92L1269.33,1382.72C1271.43,1383 1273.38,1381.5 1273.66,1379.4L1289.44,1259.29C1289.72,1257.19 1288.22,1255.24 1286.12,1254.96L1264.83,1252.17C1262.73,1251.89 1260.78,1253.38 1260.5,1255.49L1244.71,1375.59C1244.44,1377.7 1245.93,1379.65 1248.04,1379.92Z" style="fill:rgb(251,182,134);fill-rule:nonzero;"/>
            <path d="M1275.24,1275.59C1283.23,1274.85 1289.16,1267.7 1288.41,1259.7L1285.44,1227.91C1284.7,1219.92 1277.55,1213.99 1269.55,1214.74C1261.56,1215.48 1255.63,1222.63 1256.38,1230.63L1259.35,1262.42C1260.1,1270.41 1267.25,1276.34 1275.24,1275.59Z" style="fill:rgb(251,182,134);fill-rule:nonzero;"/>
            <path d="M1225.08,1310.7C1234.65,1311.36 1243.02,1304.07 1243.67,1294.5L1248.76,1220.12C1249.42,1210.56 1242.13,1202.19 1232.56,1201.54C1222.99,1200.88 1214.63,1208.17 1213.98,1217.74L1208.88,1292.12C1208.23,1301.68 1215.52,1310.05 1225.08,1310.7Z" style="fill:rgb(251,182,134);fill-rule:nonzero;"/>
            <path d="M1232.91,1237.7C1242.46,1236.81 1249.54,1228.27 1248.65,1218.72L1243.71,1165.86C1242.82,1156.31 1234.28,1149.23 1224.73,1150.12C1215.18,1151.01 1208.1,1159.55 1208.99,1169.1L1213.93,1221.96C1214.83,1231.51 1223.37,1238.59 1232.91,1237.7Z" style="fill:rgb(251,182,134);fill-rule:nonzero;"/>
            <path d="M1190.18,1216.65C1199.63,1215.01 1206.02,1205.94 1204.38,1196.49L1196.15,1149.01C1194.52,1139.57 1185.45,1133.17 1176,1134.81C1166.55,1136.45 1160.16,1145.52 1161.79,1154.97L1170.02,1202.45C1171.66,1211.89 1180.73,1218.29 1190.18,1216.65Z" style="fill:rgb(251,182,134);fill-rule:nonzero;"/>
            <path d="M1142.16,1212.64C1150.73,1208.34 1154.24,1197.82 1149.94,1189.24L1127.99,1145.41C1123.7,1136.83 1113.17,1133.33 1104.59,1137.62C1096.02,1141.92 1092.52,1152.45 1096.81,1161.02L1118.76,1204.86C1123.06,1213.43 1133.59,1216.93 1142.16,1212.64Z" style="fill:rgb(251,182,134);fill-rule:nonzero;"/>
            <path d="M1187.2,1299.71C1196.79,1299.71 1204.64,1291.87 1204.64,1282.28L1204.64,1197.37C1204.64,1187.78 1196.79,1179.93 1187.2,1179.93C1177.61,1179.93 1169.76,1187.78 1169.76,1197.37L1169.76,1282.28C1169.76,1291.87 1177.61,1299.71 1187.2,1299.71Z" style="fill:rgb(251,182,134);fill-rule:nonzero;"/>
            <path d="M1118.42,1201.43L1118.42,1201.84L1118.47,1204.31L1119.93,1268.12L1120.16,1278.16L1120.3,1284.12L1120.62,1298.2C1120.8,1307.78 1128.83,1315.43 1138.45,1315.2C1148.03,1314.97 1155.69,1306.95 1155.46,1297.37L1154.54,1257.17L1153.26,1201.06C1153.21,1198.45 1152.57,1195.97 1151.47,1193.82C1148.58,1187.9 1142.44,1183.87 1135.43,1184.01C1125.98,1184.24 1118.42,1192.03 1118.42,1201.43Z" style="fill:rgb(251,182,134);fill-rule:nonzero;"/>
            <path d="M1140.05,1420.33C1149.69,1414.77 1153.02,1402.33 1147.46,1392.69L1117.09,1340.1C1111.53,1330.46 1099.09,1327.12 1089.45,1332.69C1079.81,1338.25 1076.47,1350.69 1082.04,1360.33L1112.4,1412.93C1117.97,1422.57 1130.41,1425.9 1140.05,1420.33Z" style="fill:rgb(251,182,134);fill-rule:nonzero;"/>
            <path d="M1051.08,1281.78C1051.08,1284.26 1051.58,1286.74 1052.55,1289.12L1079.92,1355.08L1080.37,1356.14C1082.99,1362.55 1088.81,1366.77 1095.27,1367.78C1098.66,1368.29 1102.19,1367.96 1105.54,1366.54C1115.35,1362.51 1120.03,1351.14 1115.99,1341.33L1113.65,1335.69L1102.74,1309.33L1102.7,1309.33L1101.41,1306.17L1099.17,1300.76L1088.21,1274.31C1084.13,1264.55 1072.81,1259.83 1063,1263.91C1055.57,1266.98 1051.08,1274.22 1051.08,1281.78Z" style="fill:rgb(251,182,134);fill-rule:nonzero;"/>
            <path d="M1128.79,1479.71L1245.63,1479.71C1246.15,1479.71 1246.57,1479.28 1246.57,1478.76L1246.57,1377.46C1246.57,1376.94 1246.15,1376.51 1245.63,1376.51L1128.79,1376.51C1128.28,1376.51 1127.85,1376.94 1127.85,1377.46L1127.85,1478.76C1127.85,1479.28 1128.28,1479.71 1128.79,1479.71Z" style="fill:rgb(251,182,134);fill-rule:nonzero;"/>
            <path d="M1098.88,1730.99L1273.78,1730.99L1271.42,1513.77C1271.42,1512.28 1271.01,1458.32 1269.52,1458.32L1105.11,1458.32C1105.11,1458.32 1103,1512.28 1103,1513.77L1098.88,1730.99Z" style="fill:rgb(253,218,62);fill-rule:nonzero;"/>
            <path d="M933.553,1338.58L933.553,1361.23C933.553,1363.43 933.461,1365.63 933.278,1367.78C932.591,1377.18 930.344,1386.12 926.814,1394.41L926.723,1394.6C924.063,1400.92 920.626,1406.84 916.546,1412.25L916.5,1412.34C914.896,1414.45 913.2,1416.51 911.458,1418.43L911.32,1418.57C908.065,1422.19 904.49,1425.49 900.685,1428.43C886.2,1439.84 867.91,1446.67 848.106,1446.67L838.938,1446.67C817.073,1446.67 797.085,1438.38 781.959,1424.76C767.198,1411.51 757.067,1393.27 754.316,1372.73C753.767,1368.97 753.492,1365.12 753.492,1361.23L753.492,1338.58C753.492,1318.59 760.413,1300.17 772.011,1285.64C775.449,1281.28 779.3,1277.29 783.471,1273.76C793.097,1265.47 804.604,1259.28 817.21,1255.98C819.41,1255.38 821.656,1254.88 823.902,1254.51C828.761,1253.59 833.804,1253.13 838.938,1253.13L848.106,1253.13C851.728,1253.13 855.303,1253.36 858.787,1253.87C864.013,1254.46 869.102,1255.61 874.006,1257.17C887.025,1261.34 898.76,1268.58 908.249,1278.03L908.386,1278.16L908.249,1284.12L908.249,1301.68C908.249,1307.13 912.695,1311.63 918.15,1311.63L919.48,1311.63C921.864,1311.63 924.063,1310.75 925.806,1309.33L925.851,1309.33L927.135,1306.17C927.318,1306.54 927.456,1306.95 927.593,1307.36C930.482,1314.61 932.407,1322.35 933.141,1330.42C933.416,1333.13 933.553,1335.83 933.553,1338.58Z" style="fill:rgb(251,182,134);fill-rule:nonzero;"/>
            <path d="M780.511,1379.92L759.222,1382.72C757.118,1383 755.169,1381.5 754.893,1379.4L739.106,1259.29C738.83,1257.19 740.325,1255.24 742.43,1254.96L763.719,1252.17C765.823,1251.89 767.771,1253.38 768.048,1255.49L783.835,1375.59C784.112,1377.7 782.616,1379.65 780.511,1379.92Z" style="fill:rgb(251,182,134);fill-rule:nonzero;"/>
            <path d="M753.31,1275.59C745.316,1274.85 739.388,1267.7 740.135,1259.7L743.105,1227.91C743.852,1219.92 751.002,1213.99 758.995,1214.74C766.987,1215.48 772.917,1222.63 772.17,1230.63L769.199,1262.42C768.453,1270.41 761.302,1276.34 753.31,1275.59Z" style="fill:rgb(251,182,134);fill-rule:nonzero;"/>
            <path d="M803.464,1310.7C793.897,1311.36 785.534,1304.07 784.878,1294.5L779.785,1220.12C779.129,1210.56 786.42,1202.19 795.987,1201.54C805.555,1200.88 813.918,1208.17 814.573,1217.74L819.667,1292.12C820.323,1301.68 813.031,1310.05 803.464,1310.7Z" style="fill:rgb(251,182,134);fill-rule:nonzero;"/>
            <path d="M795.635,1237.7C786.087,1236.81 779.005,1228.27 779.896,1218.72L784.836,1165.86C785.728,1156.31 794.269,1149.23 803.817,1150.12C813.365,1151.01 820.447,1159.55 819.555,1169.1L814.616,1221.96C813.724,1231.51 805.183,1238.59 795.635,1237.7Z" style="fill:rgb(251,182,134);fill-rule:nonzero;"/>
            <path d="M838.372,1216.65C828.923,1215.01 822.532,1205.94 824.169,1196.49L832.396,1149.01C834.033,1139.57 843.104,1133.17 852.552,1134.81C862,1136.45 868.392,1145.52 866.755,1154.97L858.528,1202.45C856.891,1211.89 847.821,1218.29 838.372,1216.65Z" style="fill:rgb(251,182,134);fill-rule:nonzero;"/>
            <path d="M886.389,1212.64C877.815,1208.34 874.313,1197.82 878.606,1189.24L900.559,1145.41C904.853,1136.83 915.381,1133.33 923.955,1137.62C932.53,1141.92 936.032,1152.45 931.738,1161.02L909.786,1204.86C905.492,1213.43 894.963,1216.93 886.389,1212.64Z" style="fill:rgb(251,182,134);fill-rule:nonzero;"/>
            <path d="M841.349,1299.71C831.76,1299.71 823.914,1291.87 823.914,1282.28L823.914,1197.37C823.914,1187.78 831.76,1179.93 841.349,1179.93C850.938,1179.93 858.784,1187.78 858.784,1197.37L858.784,1282.28C858.784,1291.87 850.938,1299.71 841.349,1299.71Z" style="fill:rgb(251,182,134);fill-rule:nonzero;"/>
            <path d="M910.128,1201.43L910.128,1201.84L910.083,1204.31L908.615,1268.12L908.386,1278.16L908.249,1284.12L907.928,1298.2C907.745,1307.78 899.723,1315.43 890.096,1315.2C880.515,1314.97 872.86,1306.95 873.089,1297.37L874.006,1257.17L875.29,1201.06C875.335,1198.45 875.978,1195.97 877.078,1193.82C879.965,1187.9 886.108,1183.87 893.122,1184.01C902.564,1184.24 910.128,1192.03 910.128,1201.43Z" style="fill:rgb(251,182,134);fill-rule:nonzero;"/>
            <path d="M888.501,1420.33C878.862,1414.77 875.528,1402.33 881.094,1392.69L911.458,1340.1C917.023,1330.46 929.463,1327.12 939.102,1332.69C948.741,1338.25 952.075,1350.69 946.51,1360.33L916.145,1412.93C910.579,1422.57 898.14,1425.9 888.501,1420.33Z" style="fill:rgb(251,182,134);fill-rule:nonzero;"/>
            <path d="M977.468,1281.78C977.468,1284.26 976.964,1286.74 976.001,1289.12L948.634,1355.08L948.176,1356.14C945.563,1362.55 939.741,1366.77 933.278,1367.78C929.885,1368.29 926.355,1367.96 923.009,1366.54C913.2,1362.51 908.524,1351.14 912.558,1341.33L914.896,1335.69L925.806,1309.33L925.851,1309.33L927.135,1306.17L929.381,1300.76L940.337,1274.31C944.417,1264.55 955.74,1259.83 965.55,1263.91C972.976,1266.98 977.468,1274.22 977.468,1281.78Z" style="fill:rgb(251,182,134);fill-rule:nonzero;"/>
            <path d="M899.754,1479.71L782.922,1479.71C782.402,1479.71 781.977,1479.28 781.977,1478.76L781.977,1377.46C781.977,1376.94 782.403,1376.51 782.923,1376.51L899.754,1376.51C900.274,1376.51 900.7,1376.94 900.7,1377.46L900.7,1478.76C900.7,1479.28 900.274,1479.71 899.754,1479.71Z" style="fill:rgb(251,182,134);fill-rule:nonzero;"/>
            <path d="M925.55,1730.99L749.498,1730.99L758.905,1458.32L925.55,1458.32L925.55,1730.99Z" style="fill:rgb(253,218,62);fill-rule:nonzero;"/>
            <path d="M1327.41,903.161L702.907,903.161L724.985,982.801L1309.28,982.801L1327.41,903.161Z" style="fill:white;fill-rule:nonzero;"/>
            <path d="M734.621,916.301C735.547,917.691 745.7,967.286 745.7,967.286L935.732,967.286L933.573,916.301L734.621,916.301Z" style="fill:rgb(253,218,62);fill-rule:nonzero;"/>
            <path d="M997.95,937.104L1277.46,937.104C1281.84,937.104 1285.39,933.554 1285.39,929.175C1285.39,924.795 1281.84,921.245 1277.46,921.245L997.95,921.245C993.57,921.245 990.02,924.795 990.02,929.175C990.02,933.554 993.57,937.104 997.95,937.104Z" style="fill:rgb(201,233,236);fill-rule:nonzero;"/>
            <path d="M997.95,962.442L1277.46,962.442C1281.84,962.442 1285.39,958.892 1285.39,954.513C1285.39,950.133 1281.84,946.583 1277.46,946.583L997.95,946.583C993.57,946.583 990.02,950.133 990.02,954.513C990.02,958.892 993.57,962.442 997.95,962.442Z" style="fill:rgb(201,233,236);fill-rule:nonzero;"/>
        </g>
    </g>
</svg>
